<svg width="22" height="22" viewBox="0 0 22 22" fill="none" xmlns="http://www.w3.org/2000/svg">
<path d="M21 8.75037C21 8.43948 20.7757 8.24628 20.3268 8.17058L15.3464 7.41132C14.6881 7.31096 14.123 6.88955 13.8389 6.28727L11.589 1.51662C11.4369 1.17215 11.2404 1 11.0001 1C10.7598 1 10.5634 1.17215 10.4111 1.51662L8.16114 6.28729C7.87709 6.88956 7.31192 7.31096 6.65364 7.41131L1.67299 8.17058C1.22439 8.24628 1 8.43948 1 8.75037C1 8.92689 1.10019 9.12852 1.30054 9.35536L4.96581 13.0928C5.41198 13.5478 5.61465 14.1881 5.5115 14.8169L4.64195 20.1176C4.62591 20.2353 4.61795 20.3196 4.61795 20.3698C4.61795 20.5462 4.65997 20.6953 4.74408 20.8172C4.82815 20.9393 4.95428 21 5.12263 21C5.26695 21 5.42713 20.9498 5.6034 20.8489L10.0345 18.4065C10.6355 18.0753 11.3644 18.0753 11.9653 18.4065L16.3969 20.8489C16.5654 20.9498 16.7256 21 16.8775 21C17.0382 21 17.1601 20.9393 17.2443 20.8172C17.3281 20.6954 17.3702 20.5462 17.3702 20.3698C17.3702 20.2607 17.3661 20.1767 17.3581 20.1176L16.4882 14.8152C16.3852 14.1874 16.5871 13.5479 17.0319 13.0931L20.6873 9.35536C20.896 9.13691 21 8.93518 21 8.75037Z" stroke="#7DD68A"/>
</svg>
