<svg width="20" height="20" viewBox="0 0 20 20" fill="none" xmlns="http://www.w3.org/2000/svg">
<path d="M20 7.75037C20 7.43948 19.7757 7.24628 19.3268 7.17058L14.3464 6.41132C13.6881 6.31096 13.123 5.88955 12.8389 5.28727L10.589 0.516623C10.4369 0.172149 10.2404 0 10.0001 0C9.75976 0 9.56342 0.172149 9.41115 0.516623L7.16114 5.28729C6.87709 5.88956 6.31192 6.31096 5.65364 6.41131L0.672988 7.17058C0.224386 7.24628 0 7.43948 0 7.75037C0 7.92689 0.100195 8.12852 0.300542 8.35536L3.96581 12.0928C4.41198 12.5478 4.61465 13.1881 4.5115 13.8169L3.64195 19.1176C3.62591 19.2353 3.61795 19.3196 3.61795 19.3698C3.61795 19.5462 3.65997 19.6953 3.74408 19.8172C3.82815 19.9393 3.95428 20 4.12263 20C4.26695 20 4.42713 19.9498 4.6034 19.8489L9.03455 17.4065C9.63552 17.0753 10.3644 17.0753 10.9653 17.4065L15.3969 19.8489C15.5654 19.9498 15.7256 20 15.8775 20C16.0382 20 16.1601 19.9393 16.2443 19.8172C16.3281 19.6954 16.3702 19.5462 16.3702 19.3698C16.3702 19.2607 16.3661 19.1767 16.3581 19.1176L15.4882 13.8152C15.3852 13.1874 15.5871 12.5479 16.0319 12.0931L19.6873 8.35536C19.896 8.13691 20 7.93518 20 7.75037Z" fill="#7DD68A"/>
<mask id="mask0_46_10001" style="mask-type:luminance" maskUnits="userSpaceOnUse" x="0" y="0" width="20" height="20">
<path d="M20 7.75037C20 7.43948 19.7757 7.24628 19.3268 7.17058L14.3464 6.41132C13.6881 6.31096 13.123 5.88955 12.8389 5.28727L10.589 0.516623C10.4369 0.172149 10.2404 0 10.0001 0C9.75976 0 9.56342 0.172149 9.41115 0.516623L7.16114 5.28729C6.87709 5.88956 6.31192 6.31096 5.65364 6.41131L0.672988 7.17058C0.224386 7.24628 0 7.43948 0 7.75037C0 7.92689 0.100195 8.12852 0.300542 8.35536L3.96581 12.0928C4.41198 12.5478 4.61465 13.1881 4.5115 13.8169L3.64195 19.1176C3.62591 19.2353 3.61795 19.3196 3.61795 19.3698C3.61795 19.5462 3.65997 19.6953 3.74408 19.8172C3.82815 19.9393 3.95428 20 4.12263 20C4.26695 20 4.42713 19.9498 4.6034 19.8489L9.03455 17.4065C9.63552 17.0753 10.3644 17.0753 10.9653 17.4065L15.3969 19.8489C15.5654 19.9498 15.7256 20 15.8775 20C16.0382 20 16.1601 19.9393 16.2443 19.8172C16.3281 19.6954 16.3702 19.5462 16.3702 19.3698C16.3702 19.2607 16.3661 19.1767 16.3581 19.1176L15.4882 13.8152C15.3852 13.1874 15.5871 12.5479 16.0319 12.0931L19.6873 8.35536C19.896 8.13691 20 7.93518 20 7.75037Z" fill="white"/>
</mask>
<g mask="url(#mask0_46_10001)">
</g>
</svg>
