<svg width="58" height="58" viewBox="0 0 58 58" fill="none" xmlns="http://www.w3.org/2000/svg">
<path d="M29 2V8.75M48.092 9.908L43.319 14.681M56 29H49.25M48.092 48.092L43.319 43.319M29 49.25V56M14.681 43.319L9.908 48.092M8.75 29H2M14.681 14.681L9.908 9.908M40.25 29C40.25 31.9837 39.0647 34.8452 36.955 36.955C34.8452 39.0647 31.9837 40.25 29 40.25C26.0163 40.25 23.1548 39.0647 21.045 36.955C18.9353 34.8452 17.75 31.9837 17.75 29C17.75 26.0163 18.9353 23.1548 21.045 21.045C23.1548 18.9353 26.0163 17.75 29 17.75C31.9837 17.75 34.8452 18.9353 36.955 21.045C39.0647 23.1548 40.25 26.0163 40.25 29Z" stroke="#163E3B" stroke-width="3" stroke-linecap="round" stroke-linejoin="round"/>
</svg>
