<svg width="31" height="27" viewBox="0 0 31 27" fill="none" xmlns="http://www.w3.org/2000/svg">
<g clip-path="url(#clip0_48_8409)">
<path d="M13.7855 17.2234C13.7171 17.2234 13.6612 17.17 13.6604 17.1037C13.6604 17.0479 13.5694 11.4799 11.662 9.54863C11.6144 9.50011 11.6161 9.42328 11.6662 9.37718C11.7162 9.33108 11.7955 9.3327 11.8431 9.38123C12.6758 10.2239 13.2766 11.7823 13.6295 14.0112C13.8907 15.6618 13.9107 17.0867 13.9107 17.1013C13.9107 17.1684 13.8565 17.2234 13.7872 17.2242H13.7855V17.2234Z" fill="#163E3B" stroke="#163E3B" stroke-miterlimit="10"/>
<path d="M11.7173 9.58583C11.401 9.58583 9.37093 9.52356 8.02254 7.96838C6.87607 6.64612 6.57152 4.64372 7.11638 2.01698L7.14225 1.89163L7.26991 1.92398C7.30579 1.93288 8.1527 2.14881 9.16233 2.66801C10.0994 3.15001 11.3518 3.99431 11.9959 5.27938C12.6184 6.52077 12.575 7.94493 11.8674 9.51305L11.8357 9.58341L11.7565 9.58502C11.7506 9.58502 11.7373 9.58502 11.7173 9.58502V9.58583ZM7.33499 2.19409C6.84186 4.6793 7.13724 6.56848 8.21195 7.80987C9.42016 9.20492 11.2683 9.33108 11.6705 9.3416C12.3164 7.87134 12.3497 6.54018 11.7715 5.38532C10.7243 3.29639 7.96246 2.37848 7.33499 2.19329V2.19409Z" fill="#163E3B" stroke="#163E3B" stroke-miterlimit="10"/>
<path d="M13.552 14.46C13.5395 14.46 13.527 14.4584 13.5153 14.4543C13.4494 14.4341 13.4127 14.3678 13.4327 14.3039C13.4661 14.1964 14.3714 11.6198 24.5177 6.74559C24.5794 6.71567 24.6545 6.74074 24.6854 6.80059C24.7163 6.86043 24.6904 6.93322 24.6287 6.96314C14.6351 11.7645 13.6805 14.35 13.6722 14.3759C13.6555 14.4277 13.6054 14.4608 13.5529 14.4608L13.552 14.46Z" fill="#163E3B" stroke="#163E3B" stroke-miterlimit="10"/>
<path d="M20.4202 14.3193C19.8503 14.3193 19.2737 14.1947 18.6946 13.9456C16.7955 13.1288 15.5723 11.2494 15.5781 9.15719C15.5823 7.53489 16.1689 6.26681 17.3204 5.38773C18.3 4.63966 20.2508 3.78241 23.9822 3.94335C26.2025 4.03878 28.0332 4.4577 28.0516 4.46174L28.1834 4.49247L28.1417 4.61702C26.4036 9.82601 24.351 12.9744 22.0414 13.974C21.5099 14.2044 20.9684 14.3193 20.421 14.3193H20.4202ZM23.0827 4.17141C21.0835 4.17141 18.9107 4.48115 17.4747 5.57778C16.3858 6.40915 15.8326 7.61334 15.8285 9.15719C15.8235 11.1531 16.9883 12.9453 18.7964 13.7232C19.8645 14.1826 20.9216 14.1923 21.9396 13.7524C24.1633 12.79 26.155 9.73381 27.8613 4.66878C27.3348 4.55879 25.3181 4.17141 23.0844 4.17141H23.0827Z" fill="#163E3B" stroke="#163E3B" stroke-miterlimit="10"/>
<path d="M21.0148 8.78683C20.9456 8.78683 20.8896 8.73264 20.8896 8.66552V6.57901C20.8896 6.51189 20.9456 6.4577 21.0148 6.4577C21.0841 6.4577 21.14 6.51189 21.14 6.57901V8.66552C21.14 8.73264 21.0841 8.78683 21.0148 8.78683Z" fill="#163E3B" stroke="#163E3B" stroke-miterlimit="10"/>
<path d="M21.4416 11.809C21.4215 11.809 21.4015 11.8042 21.3831 11.7945L18.3902 10.2498C18.3292 10.2183 18.3059 10.1447 18.3384 10.0856C18.371 10.0266 18.4469 10.0039 18.5078 10.0355L21.5008 11.5801C21.5617 11.6117 21.5851 11.6853 21.5525 11.7443C21.53 11.7856 21.4866 11.809 21.4416 11.809Z" fill="#163E3B" stroke="#163E3B" stroke-miterlimit="10"/>
<path d="M0.25024 22.0983C0.216864 22.0983 0.182653 22.0853 0.158456 22.0594C0.111729 22.0101 0.115067 21.9333 0.165965 21.888L4.21697 18.2754C4.53655 17.99 4.88866 17.7619 5.26247 17.5977C5.99674 17.2742 7.12318 16.9653 8.32054 17.3349C10.1946 17.9131 11.4963 17.88 11.5088 17.8792H16.0996C16.4826 17.8792 16.8439 17.9455 17.1735 18.0757C17.7 18.2843 18.3333 18.7235 18.36 19.6292C18.4059 21.2103 16.8798 21.5427 16.864 21.5459L16.8389 21.5483L11.2084 21.5904H11.2076C11.1391 21.5904 11.0832 21.537 11.0824 21.4699C11.0824 21.4028 11.1375 21.3486 11.2067 21.3478L16.8239 21.3057C16.9624 21.2734 18.1489 20.9596 18.1105 19.6365C18.0922 19.0138 17.7459 18.5641 17.0792 18.3005C16.7805 18.1816 16.4509 18.1218 16.1005 18.1218H11.5138C11.4637 18.1234 10.1646 18.1582 8.24545 17.5662C7.12402 17.22 6.06099 17.5128 5.36677 17.8185C5.01716 17.973 4.68757 18.1865 4.38719 18.4542L0.335348 22.0659C0.311151 22.0878 0.281112 22.0983 0.25024 22.0983Z" fill="#163E3B" stroke="#163E3B" stroke-miterlimit="10"/>
<path d="M3.61126 26.8786C3.57204 26.8786 3.53366 26.8608 3.50946 26.8277C3.46941 26.7735 3.48276 26.6975 3.53867 26.6587L5.54623 25.2733C5.93756 25.0032 6.39899 24.852 6.8796 24.8374L14.3566 24.6069C15.2728 24.5786 16.1865 24.3465 16.9984 23.9357L26.3094 19.2241C26.6365 19.0583 26.8985 18.8027 27.047 18.5027C27.2873 18.0166 27.2389 17.5144 26.9018 17.0082C26.5931 16.544 26.1709 16.2698 25.6461 16.1914C25.2372 16.1307 24.7983 16.2091 24.4095 16.4121L20.0389 18.6992C19.978 18.7307 19.9021 18.7089 19.8695 18.6499C19.837 18.5908 19.8595 18.5172 19.9204 18.4857L24.291 16.1986C24.7266 15.9706 25.2214 15.8824 25.6844 15.952C26.2827 16.0409 26.7633 16.3523 27.1129 16.8772C27.5952 17.6018 27.4667 18.2188 27.2731 18.6086C27.1013 18.9548 26.8009 19.2499 26.4254 19.44L17.1143 24.1516C16.2691 24.5794 15.3179 24.8212 14.3642 24.8504L6.88711 25.0808C6.45573 25.0938 6.0427 25.2297 5.69142 25.4715L3.68385 26.8568C3.66216 26.8722 3.63629 26.8794 3.61126 26.8794V26.8786Z" fill="#163E3B" stroke="#163E3B" stroke-miterlimit="10"/>
</g>
<defs>
<clipPath id="clip0_48_8409">
<rect width="31" height="27" fill="white"/>
</clipPath>
</defs>
</svg>
