<svg width="42" height="58" viewBox="0 0 42 58" fill="none" xmlns="http://www.w3.org/2000/svg">
<path d="M40 36.9447C40 48.6386 32.6599 56 21 56C9.34007 56 2 48.6386 2 36.9447C2 24.396 15.6206 7.45526 19.798 2.55513C19.9466 2.38103 20.1311 2.24127 20.3387 2.14544C20.5463 2.04962 20.7721 2 21.0007 2C21.2292 2 21.455 2.04962 21.6626 2.14544C21.8702 2.24127 22.0547 2.38103 22.2033 2.55513C26.3794 7.45526 40 24.396 40 36.9447Z" stroke="#163E3B" stroke-width="3" stroke-miterlimit="10"/>
<path d="M33 39C33 41.3869 32.0518 43.6761 30.364 45.364C28.6761 47.0518 26.3869 48 24 48" stroke="#163E3B" stroke-width="3" stroke-linecap="round" stroke-linejoin="round"/>
</svg>
