<svg width="100" height="100" viewBox="0 0 100 100" fill="none" xmlns="http://www.w3.org/2000/svg">
<path d="M49.8634 80C61.9194 80 71.7288 70.0837 71.7288 57.8937C71.7288 46.0533 62.4658 36.3853 50.8865 35.8391V32.5827L52.3147 31.1386C52.9163 31.4675 53.614 31.6558 54.3752 31.6558C54.6535 31.6558 54.9359 31.633 55.2264 31.5875C56.5687 31.3723 57.9212 30.6586 58.9361 29.6324C61.942 26.5932 61.8847 21.245 61.8806 21.0175C61.8703 20.4609 61.4263 20.012 60.8759 20.0016C60.6467 19.9913 55.3574 19.9458 52.3577 22.9788C51.3428 24.005 50.6389 25.3725 50.424 26.7318C50.2522 27.8262 50.4158 28.8503 50.8599 29.682L49.8634 30.6917L48.8628 29.682C49.8777 27.7807 49.3171 24.9505 47.3671 22.9809C44.3592 19.9375 39.0698 20.0016 38.8468 20.0037C38.2964 20.014 37.8523 20.463 37.8421 21.0195C37.838 21.245 37.7807 26.5932 40.7865 29.6345C42.1002 30.9606 43.7985 31.6579 45.3434 31.6579C46.0923 31.6579 46.7962 31.4779 47.41 31.1427L48.8403 32.5827V35.8391C37.261 36.3853 28 46.0533 28 57.8937C28 70.0837 37.8073 80 49.8634 80ZM31.6565 65.7928C32.0924 65.9521 32.563 66.0804 33.0991 66.1155C35.1616 66.25 36.2052 66.999 37.3081 67.7914C38.3536 68.5403 39.434 69.3162 41.1958 69.3968C42.1309 69.4548 42.8818 68.9251 43.4793 68.5113C44.3142 67.9341 44.5781 67.8224 45.0426 68.1017C46.391 68.9127 47.2913 70.2968 47.5103 71.8982C47.6822 73.1581 48.6275 73.8615 49.4623 74.4822C50.0312 74.9043 50.5693 75.3036 50.7985 75.8146C50.9704 76.1911 50.9213 77.1077 50.8026 77.8856C50.4895 77.898 50.1805 77.9311 49.8634 77.9311C41.7094 77.9311 34.6951 72.9243 31.6565 65.7928ZM69.079 53.0752C68.3588 52.5125 67.7756 51.8028 67.2252 51.087C65.9975 49.4919 64.4669 47.5078 61.367 48.9602C60.2048 49.5084 58.9116 49.5767 57.7698 49.6367C56.3498 49.7132 55.0075 49.7836 54.232 50.816C53.5138 51.7697 53.6918 53.069 53.8882 53.9628C54.2361 55.5517 56.5216 57.0351 57.8005 57.753L57.5652 62.7929L56.9145 64.1087C56.4582 62.5363 55.8812 60.5978 55.4699 59.3978C54.8274 57.5151 52.5336 57.5772 50.1089 57.6372C48.3308 57.6868 46.3112 57.7365 45.1367 57.0123C44.5515 56.6503 44.4819 56.342 44.4574 56.2386C44.3101 55.5827 44.9403 54.5959 45.4027 53.8759C45.8611 53.16 46.1925 52.6428 46.1332 52.0387C46.0473 51.1532 45.3086 50.8222 44.6804 50.6629C45.1183 50.0256 45.4457 49.256 45.7628 48.5071C46.2478 47.3671 46.7491 46.1878 47.541 45.6789C48.073 45.3375 48.828 45.294 49.6301 45.2485C51.0809 45.1637 52.8856 45.0603 54.0621 43.0989C55.0934 41.3776 54.3998 39.557 53.5076 38.208C61.1337 39.648 67.2231 45.5196 69.079 53.0752ZM52.4477 27.0566C52.593 26.1194 53.0882 25.1656 53.8064 24.4415C55.4883 22.7409 58.2711 22.2588 59.7853 22.1223C59.6502 23.6512 59.1735 26.467 57.4915 28.1676C56.7733 28.8917 55.8321 29.3924 54.9052 29.5414C54.4161 29.6241 53.5076 29.6634 52.9183 29.0655C52.327 28.4676 52.3699 27.5511 52.4477 27.0566ZM42.2352 28.1697C40.5533 26.469 40.0765 23.6532 39.9415 22.1243C41.4556 22.2609 44.2384 22.7429 45.9204 24.4436C47.3486 25.8877 47.7722 28.0911 46.8084 29.0676C45.8467 30.042 43.6635 29.6138 42.2352 28.1697ZM49.8634 37.8542C50.1007 37.8542 50.332 37.8811 50.5673 37.8894C51.1709 38.4728 53.1782 40.5749 52.3065 42.0272C51.7193 43.0079 50.9028 43.101 49.5094 43.1817C48.5313 43.2375 47.4223 43.3038 46.4401 43.9327C45.1163 44.7851 44.4594 46.3285 43.8804 47.6878C43.5018 48.5753 43.1458 49.4132 42.7059 49.8312C42.1268 50.3794 41.914 50.938 42.0756 51.4904C42.3191 52.3159 43.1601 52.4773 43.7821 52.589C43.7474 52.6449 43.7126 52.6987 43.6798 52.7483C43.021 53.7786 42.1166 55.1876 42.4562 56.6958C42.6445 57.5337 43.1867 58.233 44.0645 58.773C45.7526 59.8137 48.0955 59.7537 50.1539 59.6999C51.3591 59.673 53.3746 59.615 53.5281 60.0702C54.279 62.2591 55.65 67.1666 55.6643 67.2162C55.7809 67.6279 56.1329 67.9258 56.5544 67.9652C56.5871 67.9693 56.6178 67.9693 56.6505 67.9693C57.0352 67.9693 57.3913 67.75 57.5652 67.3983L59.4845 63.5191C59.5479 63.3908 59.5848 63.2501 59.5909 63.1053L59.8692 57.1923C59.8896 56.7848 59.6687 56.4041 59.3106 56.22C57.8005 55.4441 56.0203 54.1428 55.8812 53.5118C55.6418 52.4214 55.8177 52.1152 55.8546 52.0656C56.0592 51.7966 57.0639 51.7428 57.8721 51.6994C59.1326 51.6332 60.702 51.5504 62.2243 50.8346C63.7692 50.1125 64.2992 50.6608 65.6046 52.3552C66.5131 53.5345 67.659 54.9517 69.5496 55.68C69.6294 56.4082 69.6765 57.1448 69.6765 57.8937C69.6765 67.8969 62.3819 76.187 52.8917 77.6704C52.9858 76.8056 53.0063 75.7215 52.6544 74.9498C52.2022 73.9546 51.3898 73.3485 50.6696 72.8126C49.9964 72.3119 49.5831 71.9809 49.5319 71.6126C49.2291 69.3824 47.9707 67.4541 46.082 66.3204C44.441 65.3356 43.1622 66.2169 42.3171 66.8004C41.9181 67.0755 41.5109 67.301 41.2817 67.3259C40.1215 67.2721 39.3992 66.7548 38.4846 66.099C37.3183 65.2632 35.8655 64.2204 33.2239 64.0466C31.5501 63.9411 30.6498 62.5839 30.5946 62.497C30.2487 61.0157 30.0462 59.4785 30.0462 57.8916C30.0462 46.8437 38.9368 37.8542 49.8634 37.8542Z" fill="#163E3B"/>
</svg>
