<svg width="24" height="24" viewBox="0 0 24 24" fill="none" xmlns="http://www.w3.org/2000/svg">
<path d="M8.28914 20.74C8.28914 20.9138 8.22014 21.0805 8.09733 21.2034C7.97452 21.3263 7.80796 21.3953 7.63428 21.3953H2.39541C1.97441 21.3943 1.56107 21.2825 1.19685 21.0713C0.832628 20.86 0.530325 20.5566 0.320259 20.1915C0.110193 19.8264 -0.000251884 19.4125 4.31347e-07 18.9912C0.000252746 18.57 0.111193 18.1562 0.321697 17.7914L4.32834 10.8631L2.28081 11.4091C2.11292 11.454 1.93409 11.4303 1.78364 11.3433C1.6332 11.2563 1.52348 11.113 1.47861 10.945C1.43375 10.777 1.45741 10.598 1.5444 10.4475C1.63139 10.297 1.77458 10.1872 1.94247 10.1423L5.51909 9.18451C5.60251 9.16176 5.68961 9.15576 5.77536 9.16686C5.86111 9.17797 5.94381 9.20595 6.0187 9.24921C6.09358 9.29246 6.15917 9.35012 6.21166 9.41887C6.26416 9.48762 6.30253 9.56609 6.32456 9.64975L7.28502 13.2275C7.30731 13.3106 7.31302 13.3973 7.30182 13.4826C7.29063 13.5679 7.26275 13.6502 7.21978 13.7247C7.17681 13.7993 7.11959 13.8646 7.05138 13.917C6.98317 13.9694 6.90531 14.0079 6.82225 14.0302C6.76673 14.0452 6.7095 14.0529 6.65199 14.0531C6.5079 14.053 6.36788 14.0052 6.25363 13.9174C6.13938 13.8295 6.05728 13.7064 6.02005 13.5671L5.47434 11.514L1.4546 18.4466C1.35899 18.6123 1.30857 18.8003 1.30837 18.9916C1.30818 19.1829 1.35822 19.3709 1.4535 19.5368C1.54877 19.7027 1.68593 19.8407 1.85124 19.9368C2.01654 20.033 2.2042 20.084 2.39541 20.0848H7.63428C7.80796 20.0848 7.97452 20.1538 8.09733 20.2767C8.22014 20.3996 8.28914 20.5663 8.28914 20.74ZM23.6783 17.7914L21.1527 13.423C21.0621 13.2803 20.9199 13.1783 20.7559 13.138C20.5918 13.0978 20.4186 13.1226 20.2724 13.2072C20.1261 13.2918 20.0182 13.4296 19.9712 13.5919C19.9241 13.7542 19.9415 13.9285 20.0198 14.0782L22.5454 18.4466C22.641 18.6123 22.6914 18.8003 22.6916 18.9916C22.6918 19.1829 22.6418 19.3709 22.5465 19.5368C22.4512 19.7027 22.3141 19.8407 22.1488 19.9368C21.9835 20.033 21.7958 20.084 21.6046 20.0848H13.5804L15.0822 18.5821C15.1979 18.4578 15.2608 18.2935 15.2579 18.1238C15.2549 17.954 15.1861 17.7921 15.0662 17.672C14.9462 17.5519 14.7843 17.4832 14.6146 17.4802C14.445 17.4772 14.2808 17.5402 14.1567 17.6559L11.5372 20.277C11.4146 20.3999 11.3457 20.5664 11.3457 20.74C11.3457 20.9137 11.4146 21.0802 11.5372 21.2031L14.1567 23.8241C14.2808 23.9399 14.445 24.0029 14.6146 23.9999C14.7843 23.9969 14.9462 23.9281 15.0662 23.8081C15.1861 23.688 15.2549 23.5261 15.2579 23.3563C15.2608 23.1865 15.1979 23.0222 15.0822 22.898L13.5804 21.3953H21.6046C22.0256 21.3943 22.4389 21.2825 22.8031 21.0713C23.1674 20.86 23.4697 20.5566 23.6797 20.1915C23.8898 19.8264 24.0003 19.4125 24 18.9912C23.9997 18.57 23.8888 18.1562 23.6783 17.7914ZM12.9441 1.84669L16.9518 8.77498L14.9043 8.22893C14.7416 8.19705 14.5728 8.22813 14.4321 8.31588C14.2914 8.40364 14.1892 8.54154 14.1461 8.70175C14.103 8.86196 14.1223 9.03256 14.2 9.17912C14.2777 9.32567 14.4081 9.43727 14.5649 9.49139L18.1426 10.4514C18.3103 10.496 18.4889 10.4722 18.6391 10.3852C18.7894 10.2982 18.8989 10.155 18.9437 9.98721L19.903 6.4073C19.9293 6.32305 19.9383 6.23435 19.9295 6.14653C19.9207 6.05871 19.8942 5.97358 19.8517 5.89625C19.8092 5.81892 19.7515 5.75098 19.6821 5.69651C19.6126 5.64204 19.533 5.60216 19.4478 5.57927C19.3626 5.55638 19.2737 5.55094 19.1863 5.56329C19.099 5.57563 19.015 5.60551 18.9395 5.65112C18.864 5.69673 18.7985 5.75714 18.7469 5.82872C18.6952 5.90029 18.6586 5.98157 18.6392 6.06766L18.088 8.12299L14.0737 1.19142C13.8622 0.828861 13.5595 0.528078 13.1956 0.319038C12.8318 0.109999 12.4196 0 12 0C11.5804 0 11.1682 0.109999 10.8044 0.319038C10.4405 0.528078 10.1378 0.828861 9.92628 1.19142L7.39416 5.55983C7.31107 5.71007 7.29024 5.88695 7.33615 6.05241C7.38206 6.21787 7.49104 6.35868 7.63965 6.44455C7.78826 6.53042 7.96462 6.55449 8.13079 6.51158C8.29695 6.46867 8.43964 6.3622 8.52816 6.21509L11.0559 1.84669C11.1519 1.68119 11.2896 1.54382 11.4553 1.44832C11.6209 1.35283 11.8088 1.30257 12 1.30257C12.1912 1.30257 12.3791 1.35283 12.5447 1.44832C12.7104 1.54382 12.8481 1.68119 12.9441 1.84669Z" fill="#163E3B"/>
</svg>
