<svg width="113" height="100" viewBox="0 0 113 100" fill="none" xmlns="http://www.w3.org/2000/svg">
<path d="M75.6259 56.4985C74.9184 55.756 73.9273 55.2944 72.8596 55.2103C71.7919 55.1261 70.7302 55.4259 69.8965 56.0469L61.1397 62.3193C61.0041 60.6149 59.9369 58.8447 58.318 58.5538C58.2834 58.5475 58.2483 58.5434 58.2131 58.5415C55.5711 58.4125 50.7137 57.1604 48.1088 56.314C45.1975 55.2858 41.9888 55.2256 39.0346 56.1437C36.4312 57.0272 34.2389 58.7137 32.8289 60.9175L32.7478 61.0401C32.3983 61.6272 31.9844 62.1797 31.5128 62.689C31.2274 62.5283 30.8943 62.4549 30.561 62.4789C30.2276 62.503 29.911 62.6235 29.6562 62.8231L29.3002 63.1018L29.0974 62.8044C29.0392 62.7191 28.9618 62.6462 28.8704 62.5909C28.779 62.5356 28.6758 62.499 28.5678 62.4837C28.4597 62.4684 28.3494 62.4747 28.2442 62.5022C28.139 62.5298 28.0415 62.5778 27.9582 62.6432L23.7806 65.919C23.3328 66.2711 23.0547 66.7726 23.0072 67.3135C22.9598 67.8545 23.1469 68.3907 23.5274 68.8046L33.1779 79.2793C33.5593 79.6926 34.1029 79.9494 34.6894 79.9933C35.2758 80.0372 35.8572 79.8646 36.3059 79.5135L38.5297 77.7717C38.6694 77.6623 38.7616 77.51 38.7893 77.3429C38.8171 77.1758 38.7785 77.005 38.6807 76.8621L38.5688 76.6969L40.8178 74.93C41.0249 74.7678 41.1833 74.5593 41.278 74.3245C41.3726 74.0896 41.4003 73.8363 41.3584 73.5888C41.6282 73.5218 41.9056 73.4844 42.185 73.4772C43.0598 73.6568 43.9029 73.9493 44.6892 74.3461C46.7689 75.2293 49.6165 76.4389 52.9928 76.5311C53.1256 76.5343 53.2578 76.5363 53.39 76.5363C57.2453 76.5363 60.9425 75.0041 64.3859 71.9786C68.3867 68.4634 70.686 66.4113 75.235 61.7426C76.814 60.1195 76.9756 57.9635 75.6259 56.4985ZM35.3199 78.4374C35.179 78.5464 34.9974 78.5999 34.8141 78.5862C34.6309 78.5726 34.4609 78.4929 34.3408 78.3645L24.6904 67.8898C24.5723 67.7599 24.5145 67.5922 24.5294 67.4232C24.5443 67.2542 24.6308 67.0973 24.7701 66.9867L28.2778 64.2366L37.0416 77.0885L35.3199 78.4374ZM39.8283 73.8571L37.75 75.4873L30.1184 64.2998L30.6415 63.8902C30.6479 63.885 30.6555 63.8811 30.6637 63.8788C30.6719 63.8764 30.6805 63.8757 30.689 63.8766C30.6977 63.8771 30.7062 63.8791 30.714 63.8827C30.7218 63.8862 30.7288 63.8912 30.7345 63.8973L39.8388 73.7726C39.8445 73.7785 39.8489 73.7855 39.8515 73.793C39.8542 73.8006 39.8551 73.8086 39.8542 73.8165C39.8533 73.8248 39.8505 73.8328 39.8461 73.84C39.8416 73.8472 39.8356 73.8535 39.8283 73.8584V73.8571ZM74.0986 60.8027C69.5874 65.4326 67.3048 67.4699 63.3356 70.9638C55.853 77.5439 49.2634 74.7435 45.3277 73.072C44.371 72.5806 43.3304 72.2435 42.2507 72.0753C41.6613 72.0846 41.0768 72.1751 40.5164 72.3437L32.5618 63.7069C33.1365 63.114 33.636 62.4625 34.0506 61.7652L34.131 61.6426C36.936 57.3849 42.0976 55.8488 47.6025 57.6371C50.2739 58.5048 55.2655 59.7853 58.0698 59.9395C59.0166 60.1517 59.7873 61.7065 59.6082 63.0638C59.4754 64.0566 58.9089 64.5359 57.9229 64.4882L50.9095 64.1482C50.8085 64.1436 50.7075 64.1574 50.6123 64.1888L47.7452 65.1372C47.5763 65.193 47.4341 65.3021 47.3438 65.4452C47.2535 65.5882 47.2208 65.7561 47.2515 65.9192C47.2821 66.0823 47.3742 66.2302 47.5115 66.3369C47.6487 66.4435 47.8224 66.5021 48.0018 66.5022C48.0895 66.5021 48.1766 66.4881 48.2592 66.4609L50.9865 65.5578L57.8474 65.89C58.4496 65.9487 59.0566 65.8321 59.5833 65.5565C60.11 65.281 60.53 64.8602 60.7845 64.3533L70.8314 57.1584C71.3551 56.76 72.0253 56.5635 72.7023 56.6101C73.3792 56.6566 74.0105 56.9425 74.4643 57.4081C75.4518 58.4809 74.9923 59.886 74.0986 60.8027ZM32.3646 74.8112C32.2396 74.6686 32.1801 74.4865 32.1986 74.3039C32.2171 74.1213 32.3122 73.9526 32.4637 73.8338C32.6151 73.7149 32.8109 73.6554 33.0092 73.6678C33.2076 73.6803 33.3928 73.7637 33.5254 73.9004L34.8499 75.3377C34.9753 75.4804 35.0351 75.6626 35.0167 75.8455C34.9982 76.0284 34.9029 76.1974 34.7512 76.3163C34.5995 76.4352 34.4033 76.4946 34.2047 76.4818C34.0061 76.469 33.8208 76.3851 33.6884 76.2479L32.3646 74.8112ZM50.4767 43.1453C50.7891 43.3182 51.0466 43.5639 51.2233 43.8578C51.3999 44.1517 51.4895 44.4834 51.483 44.8194V44.8794C51.3557 44.9373 51.2486 45.0269 51.1737 45.138C51.0988 45.2492 51.0592 45.3775 51.0592 45.5084V46.2767C51.0607 46.8456 51.2707 47.3974 51.6549 47.8424C52.0392 48.2874 52.5752 48.5995 53.176 48.7281V49.7171H53.0431C52.841 49.7171 52.6471 49.7911 52.5041 49.923C52.3612 50.0549 52.2809 50.2337 52.2809 50.4202C52.2809 50.6067 52.3612 50.7856 52.5041 50.9174C52.6471 51.0493 52.841 51.1234 53.0431 51.1234H53.176V51.2924C53.1766 51.8188 53.4034 52.3234 53.8068 52.6957C54.2102 53.0679 54.7572 53.2774 55.3278 53.2781H57.1851C57.7557 53.2774 58.3027 53.0679 58.7061 52.6957C59.1095 52.3234 59.3363 51.8188 59.3369 51.2924V51.1234H59.4698C59.6719 51.1234 59.8658 51.0493 60.0088 50.9174C60.1517 50.7856 60.232 50.6067 60.232 50.4202C60.232 50.2337 60.1517 50.0549 60.0088 49.923C59.8658 49.7911 59.6719 49.7171 59.4698 49.7171H59.3369V48.73C59.9377 48.6015 60.4738 48.2894 60.8581 47.8444C61.2424 47.3994 61.4523 46.8476 61.4537 46.2786V45.5084C61.4537 45.3775 61.4141 45.2492 61.3392 45.138C61.2643 45.0269 61.1572 44.9373 61.0299 44.8794V44.8194C61.0234 44.4834 61.113 44.1517 61.2896 43.8578C61.4663 43.5639 61.7238 43.3182 62.0362 43.1453C64.0499 41.9871 65.5999 40.2555 66.4519 38.2123C67.304 36.1692 67.4116 33.9257 66.7586 31.8211C66.1057 29.7165 64.7276 27.8653 62.8327 26.5475C60.9379 25.2296 58.6295 24.5168 56.2565 24.5168C53.8835 24.5168 51.575 25.2296 49.6802 26.5475C47.7854 27.8653 46.4072 29.7165 45.7543 31.8211C45.1013 33.9257 45.2089 36.1692 46.061 38.2123C46.913 40.2555 48.463 41.9871 50.4767 43.1453ZM57.8152 51.2944C57.8152 51.4483 57.7489 51.596 57.6309 51.7049C57.5128 51.8138 57.3528 51.875 57.1858 51.875H55.3299C55.1629 51.875 55.0029 51.8138 54.8848 51.7049C54.7668 51.596 54.7005 51.4483 54.7005 51.2944V51.1253H57.8131L57.8152 51.2944ZM54.7026 49.719V48.7971H57.8152V49.719H54.7026ZM59.932 46.2767C59.9315 46.5721 59.8039 46.8553 59.5774 47.0641C59.3509 47.273 59.0439 47.3904 58.7236 47.3908H53.7935C53.4733 47.3904 53.1663 47.273 52.9399 47.0641C52.7135 46.8552 52.5862 46.5721 52.5858 46.2767V46.2122H59.932V46.2767ZM56.2585 25.9221C58.3006 25.9221 60.2871 26.5356 61.9176 27.6697C63.5482 28.8038 64.734 30.3969 65.2958 32.2079C65.8576 34.019 65.7649 35.9496 65.0315 37.7078C64.2982 39.4659 62.9642 40.9559 61.2313 41.9525C60.7017 42.2505 60.2647 42.6698 59.9628 43.1696C59.6609 43.6695 59.5043 44.233 59.5082 44.8052H53.0089C53.0128 44.233 52.8563 43.6696 52.5545 43.1698C52.2527 42.6699 51.8159 42.2506 51.2865 41.9525C49.5536 40.956 48.2196 39.466 47.4863 37.7079C46.753 35.9499 46.6602 34.0193 47.2219 32.2083C47.7836 30.3972 48.9693 28.8041 50.5997 27.67C52.2302 26.5358 54.2166 25.9223 56.2585 25.9221ZM67.8531 34.5931C67.8531 34.4066 67.9334 34.2277 68.0763 34.0958C68.2193 33.964 68.4132 33.8899 68.6153 33.8899H71.3154C71.5175 33.8899 71.7114 33.964 71.8544 34.0958C71.9973 34.2277 72.0776 34.4066 72.0776 34.5931C72.0776 34.7796 71.9973 34.9584 71.8544 35.0903C71.7114 35.2222 71.5175 35.2962 71.3154 35.2962H68.6153C68.4132 35.2962 68.2193 35.2222 68.0763 35.0903C67.9334 34.9584 67.8531 34.7796 67.8531 34.5931ZM67.4447 43.9175C67.5877 44.0494 67.668 44.2283 67.668 44.4149C67.668 44.6014 67.5877 44.7804 67.4447 44.9123C67.3017 45.0442 67.1077 45.1183 66.9055 45.1183C66.7033 45.1183 66.5094 45.0442 66.3664 44.9123L64.4544 43.1505C64.3807 43.0858 64.3218 43.0082 64.2811 42.9222C64.2404 42.8362 64.2187 42.7436 64.2175 42.6497C64.2162 42.5559 64.2353 42.4628 64.2736 42.3759C64.3119 42.2889 64.3687 42.21 64.4406 42.1436C64.5126 42.0773 64.5982 42.0249 64.6924 41.9895C64.7866 41.9541 64.8876 41.9365 64.9893 41.9377C65.091 41.9389 65.1914 41.9589 65.2846 41.9964C65.3779 42.034 65.462 42.0883 65.5321 42.1564L67.4447 43.9175ZM55.4963 23.1939V20.7032C55.4963 20.5167 55.5766 20.3378 55.7196 20.206C55.8625 20.0741 56.0564 20 56.2585 20C56.4607 20 56.6546 20.0741 56.7975 20.206C56.9405 20.3378 57.0208 20.5167 57.0208 20.7032V23.1939C57.0208 23.3804 56.9405 23.5593 56.7975 23.6912C56.6546 23.823 56.4607 23.8971 56.2585 23.8971C56.0564 23.8971 55.8625 23.823 55.7196 23.6912C55.5766 23.5593 55.4963 23.3804 55.4963 23.1939ZM64.4544 27.0317C64.3836 26.9665 64.3275 26.889 64.2891 26.8037C64.2508 26.7184 64.2311 26.627 64.2311 26.5347C64.2311 26.4423 64.2508 26.3509 64.2891 26.2656C64.3275 26.1803 64.3836 26.1028 64.4544 26.0376L66.3636 24.2764C66.5065 24.1445 66.7003 24.0704 66.9025 24.0703C67.1046 24.0703 67.2985 24.1443 67.4415 24.2761C67.5845 24.4079 67.6649 24.5868 67.665 24.7733C67.665 24.9598 67.5848 25.1386 67.4419 25.2706L65.5349 27.0317C65.4642 27.0971 65.3802 27.149 65.2878 27.1844C65.1953 27.2198 65.0962 27.238 64.9961 27.238C64.8959 27.238 64.7968 27.2198 64.7044 27.1844C64.6119 27.149 64.5279 27.0971 64.4572 27.0317H64.4544ZM40.4395 34.5931C40.4395 34.4066 40.5198 34.2277 40.6627 34.0958C40.8057 33.964 40.9996 33.8899 41.2017 33.8899H43.9025C44.1046 33.8899 44.2985 33.964 44.4415 34.0958C44.5844 34.2277 44.6647 34.4066 44.6647 34.5931C44.6647 34.7796 44.5844 34.9584 44.4415 35.0903C44.2985 35.2222 44.1046 35.2962 43.9025 35.2962H41.2017C40.9996 35.2962 40.8057 35.2222 40.6627 35.0903C40.5198 34.9584 40.4395 34.7796 40.4395 34.5931ZM45.0731 25.2686C44.9994 25.204 44.9404 25.1264 44.8997 25.0404C44.859 24.9544 44.8374 24.8617 44.8361 24.7679C44.8348 24.6741 44.8539 24.5809 44.8922 24.494C44.9306 24.4071 44.9874 24.3281 45.0593 24.2618C45.1312 24.1954 45.2168 24.143 45.3111 24.1077C45.4053 24.0723 45.5062 24.0547 45.6079 24.0559C45.7097 24.0571 45.8101 24.077 45.9033 24.1146C45.9965 24.1521 46.0807 24.2065 46.1507 24.2745L48.0606 26.0357C48.2037 26.1676 48.2843 26.3466 48.2844 26.5332C48.2845 26.7199 48.2043 26.899 48.0613 27.0311C47.9183 27.1632 47.7242 27.2374 47.5219 27.2375C47.3195 27.2377 47.1254 27.1636 46.9822 27.0317L45.0731 25.2686ZM45.0731 44.9123C45.0023 44.847 44.9461 44.7694 44.9077 44.6841C44.8694 44.5987 44.8497 44.5073 44.8497 44.4149C44.8497 44.3225 44.8694 44.231 44.9077 44.1457C44.9461 44.0603 45.0023 43.9828 45.0731 43.9175L46.9822 42.1564C47.0523 42.0883 47.1364 42.034 47.2297 41.9964C47.3229 41.9589 47.4233 41.9389 47.525 41.9377C47.6267 41.9365 47.7277 41.9541 47.8219 41.9895C47.9161 42.0249 48.0017 42.0773 48.0737 42.1436C48.1456 42.21 48.2024 42.2889 48.2407 42.3759C48.2791 42.4628 48.2981 42.5559 48.2969 42.6497C48.2956 42.7436 48.2739 42.8362 48.2332 42.9222C48.1925 43.0082 48.1336 43.0858 48.0599 43.1505L46.1507 44.9123C46.0078 45.044 45.814 45.1181 45.6119 45.1181C45.4099 45.1181 45.216 45.044 45.0731 44.9123Z" fill="#163E3B"/>
</svg>
