<svg width="100" height="100" viewBox="0 0 100 100" fill="none" xmlns="http://www.w3.org/2000/svg">
<path d="M19.0617 49.0617C18.5435 49.5799 18.5435 50.4201 19.0617 50.9383L27.5062 59.3828C28.0244 59.901 28.8646 59.901 29.3828 59.3828C29.901 58.8646 29.901 58.0244 29.3828 57.5062L21.8766 50L29.3828 42.4938C29.901 41.9756 29.901 41.1354 29.3828 40.6172C28.8646 40.099 28.0244 40.099 27.5062 40.6172L19.0617 49.0617ZM80.9383 50.9383C81.4565 50.4201 81.4565 49.5799 80.9383 49.0617L72.4938 40.6172C71.9756 40.099 71.1354 40.099 70.6172 40.6172C70.099 41.1354 70.099 41.9756 70.6172 42.4938L78.1234 50L70.6172 57.5062C70.099 58.0244 70.099 58.8646 70.6172 59.3828C71.1354 59.901 71.9756 59.901 72.4938 59.3828L80.9383 50.9383ZM20 51.3269H80V48.6731H20V51.3269Z" fill="#163E3B"/>
<path d="M50.9383 19.0617C50.4201 18.5435 49.5799 18.5435 49.0617 19.0617L40.6172 27.5062C40.099 28.0244 40.099 28.8646 40.6172 29.3828C41.1354 29.901 41.9756 29.901 42.4938 29.3828L50 21.8766L57.5062 29.3828C58.0244 29.901 58.8646 29.901 59.3828 29.3828C59.901 28.8646 59.901 28.0244 59.3828 27.5062L50.9383 19.0617ZM49.0617 80.9383C49.5799 81.4565 50.4201 81.4565 50.9383 80.9383L59.3828 72.4938C59.901 71.9756 59.901 71.1354 59.3828 70.6172C58.8646 70.099 58.0244 70.099 57.5062 70.6172L50 78.1234L42.4938 70.6172C41.9756 70.099 41.1354 70.099 40.6172 70.6172C40.099 71.1354 40.099 71.9756 40.6172 72.4938L49.0617 80.9383ZM48.6731 20L48.6731 80L51.3269 80L51.3269 20L48.6731 20Z" fill="#163E3B"/>
<path d="M72.5403 28.7868C72.5403 28.054 71.9462 27.4599 71.2134 27.4599H59.2711C58.5382 27.4599 57.9441 28.054 57.9441 28.7868C57.9441 29.5197 58.5382 30.1137 59.2711 30.1137H69.8865V40.7291C69.8865 41.462 70.4805 42.056 71.2134 42.056C71.9462 42.056 72.5403 41.462 72.5403 40.7291V28.7868ZM27.4601 71.2132C27.4601 71.9461 28.0541 72.5401 28.787 72.5401H40.7293C41.4621 72.5401 42.0562 71.9461 42.0562 71.2132C42.0562 70.4804 41.4621 69.8863 40.7293 69.8863H30.1139L30.1139 59.2709C30.1139 58.5381 29.5198 57.944 28.787 57.944C28.0541 57.944 27.4601 58.5381 27.4601 59.2709L27.4601 71.2132ZM70.2751 27.8485L27.8487 70.2749L29.7253 72.1515L72.1517 29.7251L70.2751 27.8485Z" fill="#163E3B"/>
<path d="M71.2134 72.5401C71.9462 72.5401 72.5403 71.946 72.5403 71.2132L72.5403 59.2709C72.5403 58.538 71.9462 57.944 71.2134 57.944C70.4805 57.944 69.8865 58.538 69.8865 59.2709L69.8865 69.8863L59.2711 69.8863C58.5382 69.8863 57.9441 70.4803 57.9441 71.2132C57.9441 71.946 58.5382 72.5401 59.2711 72.5401L71.2134 72.5401ZM28.787 27.4599C28.0541 27.4599 27.4601 28.054 27.4601 28.7868L27.4601 40.7291C27.4601 41.4619 28.0541 42.056 28.787 42.056C29.5198 42.056 30.1139 41.4619 30.1139 40.7291L30.1139 30.1137L40.7293 30.1137C41.4621 30.1137 42.0562 29.5196 42.0562 28.7868C42.0562 28.0539 41.4621 27.4599 40.7293 27.4599L28.787 27.4599ZM72.1517 70.2749L29.7252 27.8485L27.8487 29.7251L70.2751 72.1515L72.1517 70.2749Z" fill="#163E3B"/>
</svg>
