<svg width="100" height="100" viewBox="0 0 100 100" fill="none" xmlns="http://www.w3.org/2000/svg">
<path d="M73.0268 49.3924C73.937 48.5573 74.6584 47.5665 75.1498 46.4765C75.6412 45.3866 75.893 44.2188 75.8909 43.0398C75.8887 41.8608 75.6326 40.6938 75.1373 39.6053C74.6419 38.5169 73.9169 37.5283 73.0037 36.696C72.0905 35.8637 71.007 35.2041 69.815 34.7547C68.623 34.3054 67.3459 34.0751 66.0566 34.0771C64.7673 34.079 63.4911 34.3132 62.3007 34.7662C61.1104 35.2191 60.0293 35.8821 59.1191 36.7171C58.3401 36.2115 57.5115 35.773 56.6439 35.4074C58.0386 34.1579 58.9948 32.557 59.3905 30.8086C59.7861 29.0603 59.6034 27.2438 58.8655 25.5908C58.1276 23.9378 56.868 22.5232 55.2473 21.5275C53.6267 20.5318 51.7184 20 49.7659 20C47.8134 20 45.9052 20.5318 44.2845 21.5275C42.6639 22.5232 41.4043 23.9378 40.6664 25.5908C39.9285 27.2438 39.7457 29.0603 40.1414 30.8086C40.5371 32.557 41.4933 34.1579 42.888 35.4074C42.0204 35.773 41.1918 36.2115 40.4127 36.7171C38.5746 35.0307 36.0791 34.081 33.4752 34.0771C30.8714 34.0731 28.3724 35.0152 26.5281 36.696C24.6839 38.3768 23.6453 40.6588 23.641 43.0398C23.6367 45.4208 24.6669 47.7059 26.505 49.3924C23.665 50.5863 21.2596 52.5007 19.5747 54.9081C17.8898 57.3155 16.9961 60.1147 17 62.9729V71.9663C16.9992 72.0971 17.0265 72.2268 17.0804 72.3479C17.1343 72.469 17.2138 72.5793 17.3143 72.6723C17.4149 72.7653 17.5344 72.8394 17.6662 72.8902C17.7981 72.9409 17.9395 72.9675 18.0825 72.9683H33.7196C33.4961 73.9612 33.3833 74.9724 33.383 75.9862V79.0041C33.383 79.2682 33.4977 79.5215 33.702 79.7083C33.9062 79.8951 34.1832 80 34.4721 80H65.0598C65.2062 80.0001 65.3511 79.9732 65.4859 79.9209C65.6207 79.8686 65.7426 79.792 65.8442 79.6956C65.9459 79.5993 66.0253 79.4852 66.0776 79.3601C66.13 79.2351 66.1542 79.1017 66.1489 78.9679V75.95C66.1485 74.9362 66.0358 73.925 65.8122 72.9321H81.4493C81.5929 72.9321 81.7351 72.9061 81.8676 72.8557C82.0002 72.8052 82.1206 72.7313 82.2218 72.6382C82.323 72.5451 82.4031 72.4346 82.4574 72.3131C82.5118 72.1916 82.5393 72.0614 82.5384 71.9301V62.979C82.543 60.1191 81.649 57.3181 79.9628 54.9095C78.2765 52.5008 75.8691 50.5858 73.0268 49.3924ZM66.1489 36.0109C68.1381 36.0644 70.0262 36.8245 71.4126 38.13C72.7989 39.4356 73.5744 41.1837 73.5744 43.0034C73.5744 44.8232 72.7989 46.5713 71.4126 47.8768C70.0262 49.1823 68.1381 49.9425 66.1489 49.9959H65.6076H65.4624L65.238 49.9658H65.0796C64.9885 49.9567 64.8981 49.9426 64.8089 49.9235C64.5458 49.887 64.2856 49.8346 64.0301 49.7666C63.931 49.7666 63.8254 49.7062 63.733 49.676C63.1215 49.4881 62.5382 49.2306 61.997 48.9095C60.9276 48.2779 60.0487 47.4109 59.4409 46.3879C58.8331 45.365 58.5159 44.2189 58.5185 43.0547C58.517 42.6664 58.5523 42.2786 58.6241 41.8959C58.838 40.7442 59.362 39.6594 60.1488 38.7391C60.8543 37.8952 61.762 37.2104 62.8022 36.7375C63.8423 36.2645 64.9872 36.016 66.1489 36.0109ZM42.1223 29.0215C42.1269 27.8112 42.4751 26.6228 43.1328 25.5725C43.7905 24.5222 44.7352 23.6461 45.8744 23.0299C47.0135 22.4138 48.3081 22.0786 49.6315 22.0573C50.9548 22.0361 52.2615 22.3294 53.4237 22.9085C54.5858 23.4877 55.5636 24.3329 56.2613 25.3614C56.959 26.3898 57.3527 27.5663 57.4038 28.7757C57.4549 29.9851 57.1618 31.1859 56.553 32.2605C55.9443 33.3352 55.0408 34.2469 53.931 34.9064C52.8593 35.5293 51.6367 35.902 50.3706 35.9914C49.1045 36.0809 47.8338 35.8845 46.6702 35.4194H46.5976C46.325 35.2903 46.0605 35.1472 45.8055 34.9909L45.6009 34.9064C44.5263 34.2724 43.6441 33.4007 43.036 32.372C42.4279 31.3433 42.1136 30.1908 42.1223 29.0215ZM44.8682 36.8137C45.0068 36.8861 45.152 36.9344 45.2907 37.0008C45.4293 37.0672 45.6669 37.1758 45.8583 37.2543C46.0497 37.3328 46.2214 37.3811 46.3996 37.4414C46.5778 37.5018 46.9342 37.6225 47.2049 37.6889H47.3501C48.1392 37.8764 48.9506 37.9737 49.7659 37.9786C50.5817 37.9747 51.3936 37.8753 52.1818 37.6829H52.327C52.5976 37.6165 52.8683 37.5259 53.1389 37.4354C53.4095 37.3449 53.4953 37.3207 53.667 37.2483C53.8386 37.1758 54.0498 37.0853 54.2412 36.9948C54.4326 36.9042 54.525 36.8801 54.6637 36.8077C55.7672 37.1764 56.8143 37.6734 57.7792 38.2864C57.7598 38.3259 57.7377 38.3642 57.7132 38.4011C57.505 38.7155 57.3197 39.0422 57.1587 39.3789C57.0072 39.7123 56.875 40.0528 56.7627 40.399C56.7627 40.4654 56.7165 40.5318 56.6967 40.5982C56.5919 40.9434 56.5103 41.2941 56.4524 41.6484C56.4524 41.7148 56.4524 41.7812 56.4524 41.8536C56.3974 42.2237 56.3687 42.5967 56.3666 42.9702C56.3416 43.326 56.3416 43.6828 56.3666 44.0386C56.3666 44.1472 56.3666 44.2498 56.4128 44.3585C56.4524 44.5939 56.5053 44.8293 56.5581 45.0586L56.6571 45.4027C56.7231 45.632 56.8089 45.8554 56.8947 46.0787C56.9343 46.1753 56.9673 46.2779 57.0135 46.3744C57.1501 46.6854 57.3043 46.9896 57.4756 47.2858C57.4777 47.3039 57.4777 47.3221 57.4756 47.3402C57.6433 47.6141 57.8261 47.88 58.0234 48.1369L58.2478 48.4085C58.3997 48.5896 58.5515 48.7646 58.7165 48.9336L58.9937 49.2113C59.0597 49.2716 59.1191 49.338 59.1785 49.3984L59.0069 49.4829C58.4507 49.7227 57.9106 49.9928 57.3897 50.2917L57.3303 50.3219L57.2907 50.2796C57.2115 50.1891 57.1191 50.1046 57.0399 50.0201C56.8617 49.839 56.6835 49.6579 56.4986 49.4889L56.1554 49.2173C55.9804 49.0722 55.7976 48.9352 55.6076 48.8069C55.4821 48.7163 55.3501 48.6379 55.2247 48.5534C55.0993 48.4689 54.8419 48.324 54.6439 48.2214C54.4458 48.1188 54.3666 48.0765 54.2214 48.0101C54.0762 47.9438 53.8122 47.823 53.6009 47.7446L53.2247 47.5816C53.0003 47.5092 52.7759 47.4428 52.5646 47.3824C52.3534 47.3221 52.2742 47.2979 52.129 47.2677C51.8782 47.2134 51.6141 47.1712 51.3567 47.135C51.2313 47.135 51.1059 47.0867 50.9739 47.0746C50.1847 46.9861 49.3867 46.9861 48.5976 47.0746C48.4656 47.0746 48.3336 47.1168 48.2016 47.135C47.9507 47.1712 47.6933 47.2134 47.4491 47.2677C47.2049 47.3221 47.1322 47.3462 46.9804 47.3885C46.8286 47.4307 46.558 47.5031 46.3204 47.5756C46.0827 47.648 45.9903 47.6963 45.8253 47.7627C45.6603 47.8291 45.4623 47.9075 45.2907 47.992C45.119 48.0765 44.9408 48.161 44.7758 48.2516C44.6108 48.3421 44.4722 48.4206 44.3203 48.5111C44.1685 48.6017 43.9771 48.7224 43.8121 48.8371C43.6471 48.9517 43.5547 49.0242 43.4293 49.1207C43.3038 49.2173 43.0926 49.3863 42.9342 49.5251L42.5976 49.8511C42.4523 49.9959 42.3005 50.1348 42.1685 50.2917V50.3279L42.1091 50.2977C41.5882 49.9988 41.0482 49.7287 40.4919 49.4889L40.2939 49.3924C40.3599 49.332 40.4193 49.2596 40.4853 49.1992L40.7428 48.9397C40.9144 48.7646 41.0794 48.5775 41.2312 48.3904L41.4424 48.1369C41.6493 47.8696 41.8389 47.5915 42.0101 47.304C42.1932 47.0025 42.3585 46.6922 42.5052 46.3744C42.5514 46.2779 42.5844 46.1813 42.624 46.0847C42.7098 45.8614 42.789 45.632 42.8616 45.4027C42.8616 45.288 42.9276 45.1733 42.954 45.0586C43.0134 44.8293 43.0662 44.5939 43.1058 44.3585C43.1058 44.2498 43.1058 44.1472 43.152 44.0386C43.1996 43.6962 43.2239 43.3515 43.2246 43.0065C43.2226 42.6329 43.1939 42.2599 43.1388 41.8898C43.1388 41.8174 43.1388 41.751 43.1388 41.6846C43.0809 41.3303 42.9994 40.9796 42.8946 40.6344C42.8946 40.568 42.855 40.5016 42.8286 40.4352C42.717 40.088 42.5826 39.7474 42.4259 39.4151C42.259 39.0649 42.0648 38.7261 41.8451 38.4011L41.7857 38.2925C42.7403 37.6817 43.7761 37.1848 44.8682 36.8137ZM57.3501 56.8707C57.2112 57.8776 56.8332 58.8444 56.2426 59.7036C55.652 60.5627 54.863 61.2933 53.931 61.8442C52.958 62.4303 51.8477 62.7984 50.69 62.9186C50.0661 63.0002 49.4327 63.0002 48.8088 62.9186C48.4933 62.8806 48.1803 62.8262 47.8715 62.7557C47.0645 62.5693 46.2971 62.2613 45.6009 61.8442C43.946 60.8673 42.7684 59.3431 42.3145 57.5904C41.8605 55.8376 42.1653 53.9923 43.1652 52.4404C43.1652 52.3861 43.2312 52.3318 43.2708 52.2775C43.2819 52.26 43.2952 52.2438 43.3104 52.2292C44.0027 51.2363 44.9582 50.4196 46.0881 49.855C47.2181 49.2905 48.4859 48.9963 49.7735 48.9999C51.0612 49.0035 52.3269 49.3048 53.4531 49.8757C54.5793 50.4466 55.5293 51.2687 56.2148 52.2654C56.2544 52.3258 56.294 52.3801 56.36 52.5008C57.0373 53.5589 57.3929 54.7634 57.3897 55.9895C57.3965 56.2837 57.3832 56.578 57.3501 56.8707ZM25.7394 42.9883C25.7394 42.0705 25.9371 41.1616 26.3212 40.3136C26.7053 39.4656 27.2683 38.6951 27.9781 38.046C28.6879 37.397 29.5305 36.8822 30.4579 36.5309C31.3853 36.1797 32.3792 35.9989 33.383 35.9989C34.3867 35.9989 35.3807 36.1797 36.3081 36.5309C37.2354 36.8822 38.0781 37.397 38.7878 38.046C39.4976 38.6951 40.0606 39.4656 40.4448 40.3136C40.8289 41.1616 41.0266 42.0705 41.0266 42.9883C41.0267 43.2829 41.0069 43.5772 40.9672 43.8696C40.78 45.1703 40.1987 46.3972 39.2888 47.4115C38.379 48.4259 37.177 49.1873 35.8186 49.6096C35.7196 49.6096 35.614 49.676 35.4622 49.7122C35.1933 49.7818 34.9199 49.8362 34.6437 49.8752H34.4655L34.2147 49.9114H34.0694C34.0036 49.917 33.9373 49.917 33.8714 49.9114C32.8353 49.9713 31.7967 49.8377 30.8188 49.5187C29.8409 49.1997 28.9443 48.7021 28.1835 48.0561C27.4227 47.4101 26.8137 46.6293 26.3935 45.7611C25.9733 44.893 25.7507 43.9558 25.7394 43.0065V42.9883ZM19.1849 62.979C19.1796 60.3196 20.0701 57.7232 21.7353 55.5428C23.4005 53.3625 25.7596 51.7039 28.4919 50.7927C28.6305 50.8711 28.7889 50.9255 28.9341 50.9979L29.4424 51.2272C29.6932 51.3238 29.9506 51.4083 30.208 51.4928C30.4655 51.5773 30.5381 51.6015 30.7097 51.6437C31.0006 51.719 31.2959 51.7795 31.5942 51.8248C31.7394 51.8248 31.878 51.8851 32.0298 51.9033C32.4673 51.9595 32.9082 51.9898 33.35 51.9938C33.5546 51.9938 33.7658 51.9938 33.9044 51.9938C34.0209 52.0002 34.1378 52.0002 34.2543 51.9938C34.3746 51.9941 34.4944 51.9799 34.6107 51.9515H34.7163C34.8163 51.9437 34.9155 51.9296 35.0134 51.9093C35.3478 51.8628 35.6785 51.7962 36.0035 51.7101C36.1619 51.6739 36.3203 51.6256 36.4919 51.5713C36.8492 51.4578 37.1995 51.3268 37.5414 51.179L37.8517 51.0341C37.9771 50.9737 38.1091 50.9194 38.2279 50.853L38.4523 50.9315C38.7758 51.0401 39.1124 51.1669 39.3962 51.2997L39.7131 51.4325C40.1091 51.6135 40.4985 51.8127 40.8682 52.036L40.9276 52.0723C40.8725 52.1721 40.824 52.2749 40.7824 52.3801C40.7164 52.5129 40.6504 52.6457 40.5909 52.7845C40.5315 52.9233 40.4193 53.213 40.3467 53.4363C40.3005 53.5691 40.2543 53.7019 40.2147 53.8408C40.1487 54.0822 40.0959 54.3296 40.0497 54.5771C40.0497 54.6978 40.0035 54.8125 39.9837 54.9332C39.931 55.3055 39.9046 55.6805 39.9045 56.0559C39.9052 56.401 39.9295 56.7457 39.9771 57.088C39.9771 57.1967 40.0101 57.2993 40.0233 57.4079C40.0629 57.6433 40.1157 57.8787 40.1751 58.1081C40.1751 58.2288 40.2345 58.3374 40.2675 58.4521C40.3335 58.6815 40.4193 58.9048 40.5051 59.1281C40.5447 59.2307 40.5777 59.3273 40.624 59.4239C40.7739 59.7088 40.9391 59.9868 41.119 60.2568C41.1177 60.2709 41.1177 60.285 41.119 60.2991C41.2883 60.5773 41.4734 60.8473 41.6735 61.1079C41.7461 61.2045 41.8253 61.289 41.8979 61.3795C42.0497 61.5606 42.2015 61.7356 42.3665 61.9106L42.6438 62.1823L42.8352 62.3694L42.6438 62.4659C42.1598 62.6765 41.6883 62.9102 41.2312 63.1661C41.0596 63.2627 40.8946 63.3713 40.723 63.4739C40.3863 63.6791 40.0629 63.8904 39.7329 64.1198L39.2114 64.506C38.9078 64.7414 38.6173 64.9829 38.3335 65.2364C38.1817 65.3752 38.0233 65.508 37.8781 65.6529C37.5744 65.9486 37.2906 66.2564 37.0134 66.5703C36.9078 66.685 36.7955 66.7936 36.7031 66.9143C36.335 67.3544 35.9956 67.8139 35.6866 68.2905L35.515 68.5863C35.2774 68.9726 35.053 69.3649 34.8549 69.7934C34.7691 69.9685 34.6965 70.1495 34.6173 70.3246C34.5381 70.4996 34.4127 70.7471 34.3269 70.9644H19.1849V62.979ZM63.9641 77.9599H35.581V75.95C35.579 74.6951 35.7769 73.4467 36.1685 72.244C36.3337 71.7453 36.5298 71.2556 36.7559 70.7773C36.8285 70.6203 36.9276 70.4694 37.0134 70.3125C37.1718 70.0047 37.3302 69.7089 37.515 69.4071C37.6272 69.2261 37.7658 69.0631 37.8847 68.8941C38.0035 68.7251 38.2477 68.375 38.4457 68.1336C38.6437 67.8921 38.7494 67.8016 38.9012 67.6326C39.053 67.4636 39.3038 67.1859 39.5282 66.9747C39.7527 66.7634 39.8847 66.6669 40.0629 66.5099C40.2411 66.353 40.5051 66.1236 40.723 65.9426C40.9408 65.7615 41.119 65.6649 41.3236 65.5261C41.5282 65.3873 41.8121 65.1941 42.0695 65.0432C42.3269 64.8923 42.5118 64.8078 42.7296 64.6871C42.9474 64.5664 43.251 64.4155 43.5283 64.2948C43.8055 64.1741 44.0035 64.1016 44.2477 64.0051L44.8748 63.7757L45.1454 63.9025L45.5151 64.0775C45.7065 64.162 45.9045 64.2405 46.1025 64.3129L46.4788 64.4457C46.6966 64.5181 46.921 64.5785 47.1388 64.6328L47.4623 64.7173C47.7989 64.7897 48.1224 64.8441 48.4788 64.8863C48.8966 64.9387 49.3178 64.965 49.7395 64.9648C50.1503 64.9661 50.5607 64.9399 50.9673 64.8863C51.3159 64.848 51.6619 64.7916 52.0036 64.7173L52.3336 64.6328C52.558 64.5785 52.7825 64.5181 52.9937 64.4457C53.2049 64.3733 53.2511 64.3552 53.3765 64.3129L53.9574 64.0835L54.3402 63.9025C54.426 63.8602 54.5184 63.824 54.6042 63.7757L55.2247 64.0051C55.4689 64.0956 55.7198 64.1861 55.9508 64.2948C56.1818 64.4034 56.4855 64.5543 56.7495 64.6871C57.0135 64.8199 57.1983 64.9165 57.4096 65.0432C57.6208 65.17 57.9046 65.3631 58.1488 65.5261C58.3931 65.6891 58.5647 65.7977 58.7561 65.9426C58.9475 66.0874 59.2181 66.3168 59.4162 66.5099C59.6142 66.7031 59.7858 66.8117 59.9508 66.9747C60.1158 67.1377 60.3667 67.4093 60.5713 67.6266C60.7759 67.8439 60.8881 67.9585 61.0333 68.1396C61.1786 68.3207 61.403 68.6285 61.5812 68.882C61.7594 69.1355 61.8452 69.2261 61.964 69.4071C62.1423 69.6908 62.3007 70.0107 62.4591 70.2884C62.5449 70.4574 62.6439 70.6143 62.7231 70.7833C62.9414 71.235 63.1288 71.6986 63.2842 72.1715V72.244C63.6757 73.4467 63.8736 74.6951 63.8716 75.95L63.9641 77.9599ZM80.347 70.9704H65.2182C65.1324 70.7531 65.0202 70.5419 64.9278 70.3306C64.8353 70.1194 64.7759 69.9745 64.6901 69.7995C64.4855 69.389 64.2611 68.9967 64.0301 68.5923L63.8584 68.3026C63.5495 67.826 63.2101 67.3665 62.8419 66.9264C62.7495 66.8057 62.6373 66.6971 62.5383 66.5824C62.2611 66.2685 61.9706 65.9788 61.667 65.6649C61.5218 65.5201 61.3634 65.3873 61.2116 65.2484C60.9277 64.9949 60.6373 64.7535 60.3337 64.5181L59.8122 64.1318C59.4954 63.9025 59.1521 63.6912 58.8221 63.486C58.6505 63.3834 58.4855 63.2747 58.3138 63.1782C57.8543 62.9262 57.3806 62.6965 56.8947 62.4901L56.7033 62.3935H56.6703C56.7429 62.3332 56.8023 62.2668 56.8683 62.2004L57.1257 61.9408C57.2973 61.7658 57.4624 61.5787 57.6142 61.3916L57.8254 61.1381C58.0323 60.8708 58.2218 60.5927 58.3931 60.3051C58.5643 60.0068 58.7186 59.7006 58.8551 59.3877C58.9013 59.2911 58.9343 59.1945 58.9739 59.098C59.0597 58.8746 59.1389 58.6453 59.2115 58.4159C59.2115 58.3012 59.2775 58.1865 59.304 58.0719C59.3634 57.8425 59.4162 57.6071 59.4558 57.3717C59.4558 57.2631 59.4888 57.1605 59.502 57.0518C59.5496 56.7095 59.5738 56.3648 59.5746 56.0197C59.5749 55.6443 59.5485 55.2693 59.4954 54.897C59.4954 54.7763 59.4492 54.6556 59.4294 54.5349C59.3832 54.2874 59.337 54.046 59.2709 53.8045C59.2313 53.6657 59.1785 53.5329 59.1323 53.3941C59.0861 53.2553 58.9871 52.9656 58.9013 52.7905C58.8155 52.6155 58.7759 52.5189 58.7099 52.3861C58.6439 52.2533 58.6109 52.1688 58.5581 52.0662H58.6043C58.9817 51.8462 59.3717 51.6447 59.7726 51.4626L60.0762 51.3298C60.3931 51.1971 60.7033 51.0703 61.0267 50.9617L61.2512 50.8832C61.37 50.9496 61.502 51.0039 61.634 51.0643L61.9376 51.2091C62.2834 51.36 62.6382 51.493 63.0004 51.6075C63.1588 51.6558 63.3172 51.7041 63.4294 51.7282C63.7405 51.8141 64.0583 51.8787 64.3799 51.9214C64.5057 51.9502 64.6336 51.9704 64.7627 51.9817C64.9118 52.0166 65.0645 52.0368 65.2182 52.0421C65.3126 52.0499 65.4076 52.0499 65.502 52.0421C65.7066 52.0421 65.9179 52.0421 66.1225 52.0421C66.3271 52.0421 66.4459 52.0421 66.6043 52.0421L67.1984 51.9998C67.469 51.9998 67.7397 51.9334 68.0037 51.8851C68.2677 51.8369 68.4063 51.8127 68.611 51.7644C68.8156 51.7161 69.106 51.6316 69.3502 51.5532C69.5945 51.4747 69.7661 51.4144 69.9641 51.3359C70.1896 51.248 70.41 51.1492 70.6242 51.0401C70.7496 50.9798 70.8816 50.9375 71.0004 50.8711C73.7327 51.7824 76.0917 53.4409 77.7569 55.6213C79.4221 57.8017 80.3126 60.398 80.3074 63.0574L80.347 70.9704Z" fill="#163E3B"/>
</svg>
