<svg width="57" height="57" viewBox="0 0 57 57" fill="none" xmlns="http://www.w3.org/2000/svg">
<path d="M41.1386 15.8616C45.5418 17.7432 50.4939 17.8888 55.0001 16.2693M16.2694 55C17.8875 50.4797 17.7419 45.5155 15.8617 41.0977C14.39 37.5802 13.9918 33.7058 14.7172 29.9624C15.4427 26.219 17.2594 22.7739 19.9386 20.0608C22.6851 17.3427 26.1748 15.4985 29.9678 14.7608" stroke="#163E3B" stroke-width="3" stroke-linecap="round" stroke-linejoin="round"/>
<path d="M26.8692 42.2392C30.6807 41.4953 34.1854 39.6365 36.9392 36.8985M36.9392 36.8985C39.6231 34.1882 41.443 30.743 42.1687 26.9984C42.8944 23.2538 42.4933 19.3782 41.0162 15.8615C39.1743 11.4428 39.0723 6.49081 40.7308 2M36.9392 36.8985L20.1015 20.0608M2 40.7308C6.50807 39.1035 11.4681 39.264 15.8615 41.1792" stroke="#163E3B" stroke-width="3" stroke-linecap="round" stroke-linejoin="round"/>
</svg>
