<svg width="61" height="55" viewBox="0 0 61 55" fill="none" xmlns="http://www.w3.org/2000/svg">
<path d="M24.6667 19C22.4123 19 20.2503 19.8955 18.6563 21.4896C17.0622 23.0836 16.1667 25.2457 16.1667 27.5C16.1667 29.7543 17.0622 31.9163 18.6563 33.5104C20.2503 35.1045 22.4123 36 24.6667 36M2 27.5H4.83333M36 53V2M24.6667 4.83333V2M24.6667 53V50.1667M6.64667 45.52L8.63 43.5367M8.63 11.4633L6.64667 9.48M36 27.5H58.6667M44.5 4.83333L36 13.3333M36 41.6667L44.5 50.1667M55.8333 36L47.3333 27.5L55.8333 19" stroke="#163E3B" stroke-width="3" stroke-linecap="round" stroke-linejoin="round"/>
</svg>
