<svg width="29" height="27" viewBox="0 0 29 27" fill="none" xmlns="http://www.w3.org/2000/svg">
<g clip-path="url(#clip0_52_1327)">
<path d="M9.17599 9.19866C9.1062 9.19866 9.03894 9.15946 9.00595 9.09018C8.959 8.99347 8.99707 8.87584 9.09097 8.82748C14.5628 6.00959 19.315 8.80526 19.362 8.83401C19.4521 8.88891 19.4838 9.00915 19.4305 9.10195C19.3772 9.19474 19.2605 9.22611 19.1704 9.17253C19.1247 9.14508 14.5437 6.45789 9.26101 9.17906C9.23309 9.19344 9.20518 9.19997 9.17599 9.19997V9.19866Z" fill="#163E3B" stroke="#163E3B" stroke-width="0.5" stroke-miterlimit="10"/>
<path d="M20.7601 26.804H18.0381L17.2869 24.684C14.2642 25.3728 11.8684 24.8591 11.2187 24.6905L10.437 26.8053H7.57806L6.23042 22.4686C4.90054 21.6753 3.5732 19.5436 3.29149 19.0731C1.2916 18.9515 0.220592 18.6666 0.191406 18.2483V18.234V13.9261C0.226937 13.0661 2.30804 12.9197 3.13668 12.8962C3.77116 11.1827 4.67847 10.1698 4.98302 9.86133L3.24073 5.74428L3.49706 5.71552C5.97282 5.43191 8.08057 6.8121 8.52598 7.12708L9.42948 6.80164C9.52846 6.76635 9.63759 6.81994 9.67185 6.92189C9.70611 7.02383 9.65409 7.13623 9.55511 7.17152L8.46507 7.56493L8.38385 7.5035C8.36228 7.48651 6.26722 5.92072 3.79908 6.08148L5.44112 9.96197L5.33706 10.0561C5.32564 10.0665 4.16835 11.1304 3.44884 13.155L3.40443 13.2817L3.27373 13.2844C1.67356 13.3131 0.584786 13.6438 0.573365 13.9339V18.1752C0.663462 18.2536 1.15201 18.5568 3.41458 18.6862L3.5161 18.6914L3.56813 18.7803C3.58335 18.8064 5.08581 21.376 6.48294 22.1615L6.5502 22.1994L7.8585 26.4106H10.1769L10.9903 24.2122L11.1603 24.2645C11.187 24.2723 13.9127 25.0931 17.3681 24.2619L17.5318 24.2226L18.3072 26.4106H20.6027C20.7055 25.8512 21.1255 24.0161 22.4389 22.2817L22.4503 22.2674C22.4998 22.2125 27.3942 16.7453 24.2485 11.5683C23.2523 9.92929 21.5481 8.46807 19.1828 7.22642C19.0889 7.17675 19.0521 7.05912 19.1003 6.9624C19.1485 6.86568 19.2627 6.82778 19.3566 6.87614C21.7841 8.15177 23.5391 9.66005 24.5721 11.3591C25.9413 13.6111 26.0529 16.2617 24.8982 19.0221C24.0543 21.0401 22.8437 22.4059 22.7346 22.5262C21.2639 24.4736 20.9555 26.6092 20.953 26.6314L20.9301 26.8H20.7652L20.7601 26.804Z" fill="#163E3B" stroke="#163E3B" stroke-width="0.5" stroke-miterlimit="10"/>
<path d="M24.4058 11.6624C24.3106 11.6624 24.2282 11.5892 24.2167 11.4885C24.204 11.3814 24.2789 11.2833 24.3842 11.2716C24.9997 11.1971 25.4349 10.9827 25.7408 10.707C25.3245 10.5723 25.0187 10.2103 24.8284 9.62737C24.6837 9.1856 24.8271 8.6994 25.1761 8.44584C25.3461 8.32168 25.5428 8.26025 25.7458 8.26548C26.0593 8.27201 26.3524 8.42624 26.5466 8.68764C26.7547 8.96733 26.8295 9.33983 26.7471 9.68357C26.7039 9.86263 26.6341 10.0783 26.5199 10.3005C27.1303 10.1083 27.7724 9.56463 28.0262 9.30454C28.101 9.22873 28.2216 9.22873 28.2952 9.30454C28.3688 9.38035 28.3688 9.50582 28.2952 9.58162C28.2457 9.6326 27.2051 10.6821 26.2217 10.7553C25.8715 11.1788 25.3131 11.55 24.4287 11.6571C24.421 11.6571 24.4134 11.6584 24.4058 11.6584V11.6624ZM25.7255 8.65888C25.6037 8.65888 25.4959 8.69417 25.3956 8.76736C25.1837 8.92159 25.0987 9.22351 25.19 9.5032C25.3474 9.98549 25.5898 10.2704 25.9095 10.3488C25.9514 10.3593 25.9946 10.3658 26.039 10.3697C26.2141 10.1162 26.3181 9.84302 26.3791 9.59208C26.4349 9.36205 26.3841 9.11502 26.2458 8.92812C26.1202 8.75821 25.94 8.6628 25.7395 8.65888C25.7357 8.65888 25.7306 8.65888 25.7268 8.65888H25.7255Z" fill="#163E3B" stroke="#163E3B" stroke-width="0.5" stroke-miterlimit="10"/>
<path d="M11.3648 8.33865C11.3204 8.33865 11.276 8.32297 11.2404 8.2916C10.2506 7.41199 9.68213 6.15073 9.68213 4.83067C9.68213 2.27548 11.7696 0.196045 14.3354 0.196045C16.9013 0.196045 18.9887 2.27548 18.9887 4.83067C18.9887 6.11545 18.4735 7.31004 17.537 8.19358C17.4596 8.26677 17.3391 8.26154 17.268 8.18181C17.1969 8.10209 17.202 7.97792 17.2794 7.90473C18.136 7.0957 18.608 6.00435 18.608 4.83067C18.608 2.49114 16.6919 0.588145 14.3354 0.588145C11.979 0.588145 10.0628 2.49114 10.0628 4.83067C10.0628 6.03703 10.5831 7.1898 11.4891 7.9936C11.5691 8.06418 11.578 8.18835 11.5094 8.27069C11.4714 8.31513 11.4181 8.33865 11.3648 8.33865Z" fill="#163E3B" stroke="#163E3B" stroke-width="0.5" stroke-miterlimit="10"/>
<path d="M6.21782 13.3183C6.52688 13.3183 6.77743 13.0603 6.77743 12.7419C6.77743 12.4236 6.52688 12.1656 6.21782 12.1656C5.90875 12.1656 5.6582 12.4236 5.6582 12.7419C5.6582 13.0603 5.90875 13.3183 6.21782 13.3183Z" fill="#163E3B" stroke="#163E3B" stroke-width="0.5" stroke-miterlimit="10"/>
<path d="M14.6695 6.86696C13.3904 6.86696 12.3511 5.79522 12.3511 4.47907C12.3511 3.16293 13.3916 2.09119 14.6695 2.09119C15.1339 2.09119 15.5819 2.23234 15.9664 2.49897C16.0539 2.55909 16.0768 2.68195 16.0171 2.77083C15.9587 2.8597 15.8395 2.88454 15.7532 2.82311C15.4321 2.59961 15.0578 2.48198 14.6695 2.48198C13.601 2.48198 12.7318 3.37727 12.7318 4.47777C12.7318 5.57826 13.601 6.47356 14.6695 6.47356C15.0806 6.47356 15.474 6.34286 15.8052 6.09453C15.8902 6.03048 16.0095 6.05009 16.0717 6.13766C16.1339 6.22523 16.1148 6.34808 16.0298 6.41082C15.6326 6.70751 15.1618 6.86435 14.6707 6.86435L14.6695 6.86696Z" fill="#163E3B" stroke="#163E3B" stroke-width="0.25" stroke-miterlimit="10"/>
<path d="M15.5246 4.24644H11.4145C11.3091 4.24644 11.2241 4.15887 11.2241 4.05039C11.2241 3.94191 11.3091 3.85434 11.4145 3.85434H15.5246C15.63 3.85434 15.715 3.94191 15.715 4.05039C15.715 4.15887 15.63 4.24644 15.5246 4.24644Z" fill="#163E3B" stroke="#163E3B" stroke-width="0.25" stroke-miterlimit="10"/>
<path d="M15.5246 5.14958H11.4145C11.3091 5.14958 11.2241 5.06201 11.2241 4.95353C11.2241 4.84505 11.3091 4.75748 11.4145 4.75748H15.5246C15.63 4.75748 15.715 4.84505 15.715 4.95353C15.715 5.06201 15.63 5.14958 15.5246 5.14958Z" fill="#163E3B" stroke="#163E3B" stroke-width="0.25" stroke-miterlimit="10"/>
</g>
<defs>
<clipPath id="clip0_52_1327">
<rect width="28.5429" height="27" fill="white"/>
</clipPath>
</defs>
</svg>
