<svg width="32" height="32" viewBox="0 0 32 32" fill="none" xmlns="http://www.w3.org/2000/svg">
<path d="M14.9948 24.0614L7 25.4941L8.33247 17.4285L23.6026 2.27894C23.8504 2.03027 24.1451 1.83289 24.4699 1.69819C24.7946 1.56349 25.1429 1.49414 25.4947 1.49414C25.8466 1.49414 26.1949 1.56349 26.5196 1.69819C26.8444 1.83289 27.1391 2.03027 27.3869 2.27894L30.2117 5.0913C30.4615 5.33794 30.6597 5.63139 30.795 5.9547C30.9303 6.27801 31 6.6248 31 6.97505C31 7.32529 30.9303 7.67208 30.795 7.99539C30.6597 8.3187 30.4615 8.61215 30.2117 8.85879L14.9948 24.0614Z" stroke="#FDFFFB" stroke-linecap="round" stroke-linejoin="round"/>
<path d="M31 20.5652V28.3913C31 29.0832 30.7252 29.7467 30.2359 30.2359C29.7467 30.7252 29.0832 31 28.3913 31H3.6087C2.91683 31 2.25329 30.7252 1.76407 30.2359C1.27484 29.7467 1 29.0832 1 28.3913V3.6087C1 2.91683 1.27484 2.25329 1.76407 1.76407C2.25329 1.27484 2.91683 1 3.6087 1H11.4348" stroke="#FDFFFB" stroke-linecap="round" stroke-linejoin="round"/>
</svg>
