<svg width="20" height="20" viewBox="0 0 20 20" fill="none" xmlns="http://www.w3.org/2000/svg">
<path fill-rule="evenodd" clip-rule="evenodd" d="M12.9453 5.30667H7.00043C6.05154 5.30667 5.27954 6.07867 5.27954 7.02756V12.9724C5.27954 13.9213 6.05154 14.6936 7.00043 14.6936H12.9453C13.8942 14.6936 14.6664 13.9216 14.6664 12.9724V7.02756C14.6664 6.07867 13.8944 5.30667 12.9453 5.30667ZM9.97287 13.0902C8.2691 13.0902 6.88287 11.704 6.88287 10C6.88287 8.29623 8.2691 6.91 9.97287 6.91C11.6769 6.91 13.0631 8.29623 13.0631 10C13.0631 11.7038 11.6767 13.0902 9.97287 13.0902ZM12.4311 6.81778C12.4311 7.22089 12.7591 7.54889 13.1624 7.54889C13.5655 7.54889 13.8935 7.22089 13.8935 6.81778C13.8935 6.41467 13.5655 6.08667 13.1624 6.08667C12.7591 6.08667 12.4311 6.41467 12.4311 6.81778Z" fill="#7DD68A"/>
<path d="M9.97292 8.21579C8.98937 8.21579 8.18848 9.01623 8.18848 9.99979C8.18848 10.9838 8.98937 11.7845 9.97292 11.7845C10.9569 11.7845 11.7571 10.9838 11.7571 9.99979C11.7571 9.01646 10.9567 8.21579 9.97292 8.21579Z" fill="#7DD68A"/>
<path fill-rule="evenodd" clip-rule="evenodd" d="M-0.000244141 9.97311C-0.000244141 4.46533 4.46509 0 9.97287 0C15.4806 0 19.946 4.46533 19.946 9.97311C19.946 15.4809 15.4806 19.9462 9.97287 19.9462C4.46509 19.9462 -0.000244141 15.4809 -0.000244141 9.97311ZM12.9453 15.9991C14.6144 15.9991 15.972 14.6416 15.972 12.9724V7.02756C15.972 5.35867 14.6144 4.00089 12.9453 4.00089H7.00042C5.33153 4.00089 3.97376 5.35867 3.97376 7.02756V12.9724C3.97376 14.6416 5.33153 15.9991 7.00042 15.9991H12.9453Z" fill="#7DD68A"/>
</svg>
