<svg width="20" height="20" viewBox="0 0 20 20" fill="none" xmlns="http://www.w3.org/2000/svg">
<path d="M9.92885 19.8581C15.4124 19.8581 19.8577 15.4128 19.8577 9.92922C19.8577 4.44566 15.4124 0.000366211 9.92885 0.000366211C4.4453 0.000366211 0 4.44566 0 9.92922C0 15.4128 4.4453 19.8581 9.92885 19.8581Z" fill="#7DD68A"/>
<path d="M10.7303 13.296C9.97964 13.2379 9.66424 12.8657 9.07557 12.5083C8.75203 14.2059 8.35663 15.8331 7.18548 16.6832C6.82353 14.1175 7.7161 12.1905 8.13061 10.145C7.42407 8.9556 8.21557 6.56162 9.70584 7.15153C11.54 7.87684 8.11787 11.574 10.4152 12.0358C12.8136 12.5179 13.7927 7.87419 12.3053 6.36374C10.1563 4.18304 6.04991 6.31419 6.55486 9.43596C6.67787 10.1991 7.46654 10.4308 6.86991 11.4839C5.49451 11.1793 5.08424 10.0945 5.13699 8.64834C5.22212 6.28109 7.26407 4.62357 9.31221 4.39419C11.9025 4.10427 14.3336 5.34534 14.6692 7.7818C15.0467 10.5317 13.4998 13.5098 10.7303 13.296Z" fill="#131D1D"/>
</svg>
