<svg width="180" height="38" viewBox="0 0 180 38" fill="none" xmlns="http://www.w3.org/2000/svg">
<g clip-path="url(#clip0_46_9477)">
<path d="M3.01237 27.7712L2.39717 30.0284H0.572775L0 21.3442L1.9835 21.0098C3.2033 25.0332 5.99293 27.8548 9.69476 27.8548C12.5586 27.8548 14.1285 26.3917 14.1285 24.0926C14.1285 21.4592 12.2192 20.2887 8.25221 19.0138C4.08368 17.7284 0.339422 15.7428 0.339422 10.6222C0.339422 6.29572 3.8185 2.27234 9.88568 2.27234C12.5162 2.27234 14.4679 3.06656 16.1438 4.26835L16.5681 2.27234H18.1697L19.1986 10.549L17.2151 10.9252C15.6453 6.41067 13.2057 4.52961 10.2675 4.52961C7.82793 4.52961 6.21567 5.88816 6.21567 8.14543C6.21567 10.8939 8.3901 11.9075 11.7525 12.9944C16.4832 14.4992 20.2699 16.4534 20.2699 21.4905C20.2699 27.0919 15.2634 30.1747 10.416 30.1747C7.6264 30.1747 4.99587 29.2342 3.01237 27.7712Z" fill="#7DD68A"/>
<path d="M22.9537 27.9279L24.4068 27.698C25.1705 27.5831 25.3615 27.28 25.3615 25.9633V14.6456C25.3615 13.0676 25.1705 12.5764 24.025 12.4614L22.6143 12.2733L22.8052 10.4341L30.8983 9.98471L31.3544 10.2878L31.4711 13.9036H31.5877C32.7757 11.2701 35.0668 9.72345 37.9625 9.72345C41.134 9.72345 43.1175 11.1865 43.8388 13.82C44.9843 11.2596 47.2754 9.72345 50.1817 9.72345C54.3397 9.72345 56.4398 12.2838 56.4398 16.4221V26.1618C56.4398 27.3323 56.6308 27.6249 57.5854 27.7398L58.8794 27.9279V29.6627H48.0709V27.9279L48.8771 27.813C49.715 27.698 49.8741 27.3218 49.8741 26.1932V16.9446C49.8741 13.82 49.1847 12.9526 47.5406 12.9526C45.7056 12.9526 44.1782 14.4993 44.1782 17.279V26.0782C44.1782 27.1651 44.2206 27.6249 45.0586 27.7712L46.0132 27.9175V29.6522H35.8199V27.9175L36.626 27.8025C37.464 27.6876 37.6231 27.3114 37.6231 26.1827V16.9342C37.6231 13.7782 36.9761 12.9422 35.2896 12.9422C33.4546 12.9422 31.9272 14.562 31.9272 17.2268V26.0678C31.9272 27.2382 32.0438 27.6144 32.8075 27.7607L33.7622 27.907V29.6418H22.9537V27.907V27.9279Z" fill="#7DD68A"/>
<path d="M61.0217 25.0332C61.0217 20.7799 64.1508 19.39 72.0529 19.0556V15.4398C72.0529 12.66 71.2468 11.4896 68.8815 11.4896C67.6192 11.4896 66.1343 11.9076 65.3706 12.545C66.6646 14.1962 66.9722 14.9904 66.9722 15.5547C66.9722 16.6416 65.9751 17.5508 64.1083 17.5508C62.2415 17.5508 61.3187 16.5684 61.3187 15.1472C61.3187 12.3987 64.7129 9.76526 70.0588 9.76526C75.6699 9.76526 78.608 11.8344 78.608 17.1432V25.493C78.608 26.6948 79.0323 27.2278 79.9869 27.2278C80.5173 27.2278 80.984 27.1128 81.5143 26.9247L81.8962 28.3146C80.6764 29.5582 78.799 30.1957 77.0806 30.1957C74.4077 30.1957 72.997 28.8789 72.5727 26.8829C71.5756 28.9103 69.8255 30.1957 66.7707 30.1957C63.1431 30.1957 61.0005 28.2415 61.0005 25.0436L61.0217 25.0332ZM72.0529 24.4689V20.7068C68.7648 20.7799 67.4707 21.7204 67.4707 24.3957C67.4707 26.3186 68.1178 27.3323 69.5285 27.3323C71.0983 27.3323 72.0529 26.2036 72.0529 24.4689Z" fill="#7DD68A"/>
<path d="M82.8189 27.9279L84.2721 27.698C85.0782 27.5831 85.2267 27.2069 85.2267 25.9319V14.7187C85.2267 13.1407 85.11 12.5764 83.9326 12.4614L82.4795 12.2733L82.6704 10.4341L90.6893 9.98471L91.1454 10.2878L91.3363 14.0081H91.453C92.5561 11.2596 94.8472 9.72345 97.3717 9.72345C100.193 9.72345 101.911 11.4164 101.911 14.0081C101.911 16.2654 100.883 17.7702 98.5172 17.7702C96.5655 17.7702 95.6533 16.8297 95.6533 15.6279C95.6533 14.8337 95.9185 14.1648 96.9898 12.545C94.6563 11.6777 91.7924 13.9349 91.7924 17.6657V25.9842C91.7924 27.186 91.9091 27.604 92.8637 27.6771L95.3457 27.9384V29.6731H82.8189V27.9384V27.9279Z" fill="#7DD68A"/>
<path d="M105.804 24.3853V12.4197H103.174V10.6118C106.801 10.1937 107.756 8.35448 108.329 4.21615L111.765 3.76678L112.381 4.1012V10.2355H117.578V12.4197H112.381V23.3612C112.381 25.284 112.911 26.4127 114.598 26.4127C115.701 26.4127 116.814 25.9947 117.769 25.1691L118.681 26.6739C117.005 28.7849 114.863 30.1748 111.734 30.1748C107.989 30.1748 105.815 28.44 105.815 24.3853H105.804Z" fill="#7DD68A"/>
<path d="M123.263 27.7712L122.648 30.0284H120.813L120.24 21.3442L122.224 21.0098C123.444 25.0332 126.233 27.8548 129.935 27.8548C132.799 27.8548 134.369 26.3917 134.369 24.0926C134.369 21.4592 132.459 20.2887 128.492 19.0138C124.335 17.7388 120.59 15.7428 120.59 10.6222C120.59 6.29572 124.069 2.27234 130.137 2.27234C132.767 2.27234 134.719 3.06656 136.395 4.26835L136.819 2.27234H138.421L139.449 10.549L137.466 10.9252C135.896 6.41067 133.457 4.52961 130.518 4.52961C128.079 4.52961 126.467 5.88816 126.467 8.14543C126.467 10.8939 128.641 11.9075 132.003 12.9944C136.734 14.4992 140.521 16.4534 140.521 21.4905C140.521 27.0919 135.514 30.1747 130.667 30.1747C127.877 30.1747 125.247 29.2342 123.263 27.7712Z" fill="#FDFFFB"/>
<path d="M143.151 27.8861L144.753 27.698C145.559 27.5831 145.75 27.2069 145.75 25.8901V14.7605C145.75 13.1094 145.559 12.6182 144.414 12.4614L143.003 12.3151L143.151 10.4341L151.86 10.0161L152.316 10.3191V25.9633C152.316 27.1337 152.433 27.5413 153.387 27.698L154.915 27.9279V29.6627H143.151V27.8966V27.8861ZM144.605 3.66225C144.605 1.66624 146.015 0.391296 148.54 0.391296C151.064 0.391296 152.507 1.63489 152.507 3.70405C152.507 5.77322 150.979 7.01681 148.54 7.01681C146.1 7.01681 144.605 5.77322 144.605 3.6727V3.66225Z" fill="#FDFFFB"/>
<path d="M156.898 36.0478L158.309 35.8597C159.03 35.7448 159.306 35.4417 159.306 34.0936V14.7605C159.306 13.0257 159.072 12.5764 157.969 12.4301L156.59 12.2838L156.781 10.4445L164.832 9.99515L165.288 10.2982L165.437 13.496H165.511C166.805 11.3119 168.756 9.73389 171.928 9.73389C176.892 9.73389 179.989 12.8899 179.989 19.3273C179.989 25.7647 176.701 30.1956 170.295 30.1956C168.619 30.1956 167.049 29.8194 165.861 29.182V34.1145C165.861 35.3581 166.009 35.7343 167.155 35.8493L169.255 36.0792V37.8139H156.887V36.0792L156.898 36.0478ZM173.084 19.9125C173.084 14.8755 171.748 12.8376 169.457 12.8376C167.165 12.8376 165.871 14.4156 165.871 17.2372V26.4858C166.678 27.165 168.088 27.7294 169.35 27.7294C171.875 27.7294 173.095 25.6602 173.095 19.9021L173.084 19.9125Z" fill="#FDFFFB"/>
</g>
<defs>
<clipPath id="clip0_46_9477">
<rect width="180" height="37.3913" fill="white" transform="translate(0 0.391296)"/>
</clipPath>
</defs>
</svg>
