<svg width="180" height="38" viewBox="0 0 180 38" fill="none" xmlns="http://www.w3.org/2000/svg">
<g clip-path="url(#clip0_46_9465)">
<path d="M3.01237 27.3799L2.39717 29.6371H0.572775L0 20.9529L1.9835 20.6185C3.2033 24.6419 5.99293 27.4635 9.69476 27.4635C12.5586 27.4635 14.1285 26.0004 14.1285 23.7013C14.1285 21.0679 12.2192 19.8974 8.25221 18.6225C4.08368 17.3371 0.339422 15.3515 0.339422 10.2309C0.339422 5.90442 3.8185 1.88104 9.88568 1.88104C12.5162 1.88104 14.4679 2.67527 16.1438 3.87706L16.5681 1.88104H18.1697L19.1986 10.1577L17.2151 10.5339C15.6453 6.01938 13.2057 4.13832 10.2675 4.13832C7.82793 4.13832 6.21567 5.49686 6.21567 7.75413C6.21567 10.5026 8.3901 11.5163 11.7525 12.6031C16.4832 14.1079 20.2699 16.0622 20.2699 21.0992C20.2699 26.7006 15.2634 29.7834 10.416 29.7834C7.6264 29.7834 4.99587 28.8429 3.01237 27.3799Z" fill="#FDFFFB"/>
<path d="M22.9537 27.5366L24.4068 27.3067C25.1705 27.1918 25.3615 26.8887 25.3615 25.572V14.2543C25.3615 12.6763 25.1705 12.1851 24.025 12.0701L22.6143 11.882L22.8052 10.0428L30.8983 9.59341L31.3544 9.89647L31.4711 13.5123H31.5877C32.7757 10.8788 35.0668 9.33215 37.9625 9.33215C41.134 9.33215 43.1175 10.7952 43.8388 13.4287C44.9843 10.8684 47.2754 9.33215 50.1817 9.33215C54.3397 9.33215 56.4398 11.8925 56.4398 16.0308V25.7705C56.4398 26.941 56.6308 27.2336 57.5854 27.3485L58.8794 27.5366V29.2714H48.0709V27.5366L48.8771 27.4217C49.715 27.3067 49.8741 26.9305 49.8741 25.8019V16.5533C49.8741 13.4287 49.1847 12.5613 47.5406 12.5613C45.7056 12.5613 44.1782 14.108 44.1782 16.8877V25.6869C44.1782 26.7738 44.2206 27.2336 45.0586 27.3799L46.0132 27.5262V29.2609H35.8199V27.5262L36.626 27.4112C37.464 27.2963 37.6231 26.9201 37.6231 25.7914V16.5429C37.6231 13.3869 36.9761 12.5509 35.2896 12.5509C33.4546 12.5509 31.9272 14.1707 31.9272 16.8355V25.6765C31.9272 26.8469 32.0438 27.2231 32.8075 27.3694L33.7622 27.5157V29.2505H22.9537V27.5157V27.5366Z" fill="#FDFFFB"/>
<path d="M61.0217 24.6419C61.0217 20.3886 64.1508 18.9987 72.0529 18.6643V15.0485C72.0529 12.2687 71.2468 11.0983 68.8815 11.0983C67.6192 11.0983 66.1343 11.5163 65.3706 12.1538C66.6646 13.8049 66.9722 14.5991 66.9722 15.1634C66.9722 16.2503 65.9751 17.1595 64.1083 17.1595C62.2415 17.1595 61.3187 16.1771 61.3187 14.7559C61.3187 12.0074 64.7129 9.37396 70.0588 9.37396C75.6699 9.37396 78.608 11.4431 78.608 16.7519V25.1017C78.608 26.3035 79.0323 26.8365 79.9869 26.8365C80.5173 26.8365 80.984 26.7215 81.5143 26.5334L81.8962 27.9233C80.6764 29.1669 78.799 29.8044 77.0806 29.8044C74.4077 29.8044 72.997 28.4876 72.5727 26.4916C71.5756 28.519 69.8255 29.8044 66.7707 29.8044C63.1431 29.8044 61.0005 27.8502 61.0005 24.6524L61.0217 24.6419ZM72.0529 24.0776V20.3155C68.7648 20.3886 67.4707 21.3291 67.4707 24.0044C67.4707 25.9273 68.1178 26.941 69.5285 26.941C71.0983 26.941 72.0529 25.8123 72.0529 24.0776Z" fill="#FDFFFB"/>
<path d="M82.8189 27.5366L84.2721 27.3067C85.0782 27.1918 85.2267 26.8156 85.2267 25.5406V14.3274C85.2267 12.7494 85.11 12.1851 83.9326 12.0701L82.4795 11.882L82.6704 10.0428L90.6893 9.59341L91.1454 9.89647L91.3363 13.6168H91.453C92.5561 10.8684 94.8472 9.33215 97.3717 9.33215C100.193 9.33215 101.911 11.0251 101.911 13.6168C101.911 15.8741 100.883 17.3789 98.5172 17.3789C96.5655 17.3789 95.6533 16.4384 95.6533 15.2366C95.6533 14.4424 95.9185 13.7735 96.9898 12.1537C94.6563 11.2864 91.7924 13.5436 91.7924 17.2744V25.5929C91.7924 26.7947 91.9091 27.2127 92.8637 27.2858L95.3457 27.5471V29.2818H82.8189V27.5471V27.5366Z" fill="#FDFFFB"/>
<path d="M105.804 23.994V12.0284H103.174V10.2205C106.801 9.80245 107.756 7.96319 108.329 3.82485L111.765 3.37549L112.381 3.7099V9.84425H117.578V12.0284H112.381V22.9699C112.381 24.8927 112.911 26.0214 114.598 26.0214C115.701 26.0214 116.814 25.6034 117.769 24.7778L118.681 26.2826C117.005 28.3936 114.863 29.7835 111.734 29.7835C107.989 29.7835 105.815 28.0487 105.815 23.994H105.804Z" fill="#FDFFFB"/>
<path d="M123.263 27.3799L122.648 29.6371H120.813L120.24 20.9529L122.224 20.6185C123.444 24.6419 126.233 27.4635 129.935 27.4635C132.799 27.4635 134.369 26.0004 134.369 23.7013C134.369 21.0679 132.459 19.8974 128.492 18.6225C124.335 17.3475 120.59 15.3515 120.59 10.2309C120.59 5.90442 124.069 1.88104 130.137 1.88104C132.767 1.88104 134.719 2.67527 136.395 3.87706L136.819 1.88104H138.421L139.449 10.1577L137.466 10.5339C135.896 6.01938 133.457 4.13832 130.518 4.13832C128.079 4.13832 126.467 5.49686 126.467 7.75413C126.467 10.5026 128.641 11.5163 132.003 12.6031C136.734 14.1079 140.521 16.0622 140.521 21.0992C140.521 26.7006 135.514 29.7834 130.667 29.7834C127.877 29.7834 125.247 28.8429 123.263 27.3799Z" fill="#FDFFFB"/>
<path d="M143.151 27.4948L144.753 27.3067C145.559 27.1918 145.75 26.8156 145.75 25.4988V14.3692C145.75 12.7181 145.559 12.2269 144.414 12.0701L143.003 11.9238L143.151 10.0428L151.86 9.62476L152.316 9.92782V25.572C152.316 26.7424 152.433 27.15 153.387 27.3067L154.915 27.5366V29.2714H143.151V27.5053V27.4948ZM144.605 3.27096C144.605 1.27494 146.015 0 148.54 0C151.064 0 152.507 1.24359 152.507 3.31276C152.507 5.38192 150.979 6.62551 148.54 6.62551C146.1 6.62551 144.605 5.38192 144.605 3.28141V3.27096Z" fill="#FDFFFB"/>
<path d="M156.898 35.6565L158.309 35.4684C159.03 35.3535 159.306 35.0504 159.306 33.7023V14.3692C159.306 12.6344 159.072 12.1851 157.969 12.0388L156.59 11.8925L156.781 10.0532L164.832 9.60385L165.288 9.90691L165.437 13.1047H165.511C166.805 10.9206 168.756 9.34259 171.928 9.34259C176.892 9.34259 179.989 12.4986 179.989 18.936C179.989 25.3734 176.701 29.8043 170.295 29.8043C168.619 29.8043 167.049 29.4281 165.861 28.7907V33.7232C165.861 34.9668 166.009 35.343 167.155 35.458L169.255 35.6879V37.4226H156.887V35.6879L156.898 35.6565ZM173.084 19.5212C173.084 14.4842 171.748 12.4463 169.457 12.4463C167.165 12.4463 165.871 14.0243 165.871 16.8459V26.0945C166.678 26.7737 168.088 27.3381 169.35 27.3381C171.875 27.3381 173.095 25.2689 173.095 19.5108L173.084 19.5212Z" fill="#FDFFFB"/>
</g>
<defs>
<clipPath id="clip0_46_9465">
<rect width="180" height="37.3913" fill="white"/>
</clipPath>
</defs>
</svg>
