<svg width="20" height="20" viewBox="0 0 20 20" fill="none" xmlns="http://www.w3.org/2000/svg">
<path d="M9.92861 19.8577C15.4122 19.8577 19.8575 15.4124 19.8575 9.92885C19.8575 4.4453 15.4122 0 9.92861 0C4.44505 0 -0.000244141 4.4453 -0.000244141 9.92885C-0.000244141 15.4124 4.44505 19.8577 9.92861 19.8577Z" fill="#7DD68A"/>
<path d="M16.5675 7.11292C16.1421 7.30159 15.6844 7.4292 15.2044 7.48619C15.6944 7.19257 16.0706 6.72796 16.2481 6.17345C15.7895 6.44549 15.2813 6.64283 14.741 6.7492C14.3081 6.28814 13.6913 6 13.0083 6C11.6978 6 10.635 7.06283 10.635 8.37327C10.635 8.55929 10.656 8.74035 10.6967 8.91416C8.72436 8.81522 6.97551 7.87044 5.80489 6.43416C5.60064 6.7846 5.48347 7.19257 5.48347 7.62743C5.48347 8.45062 5.90276 9.17735 6.53922 9.60283C6.15038 9.59062 5.78418 9.48389 5.46436 9.30566C5.46418 9.31575 5.46418 9.32584 5.46418 9.33575C5.46418 10.4857 6.28259 11.4448 7.36807 11.6627C7.16914 11.7172 6.95905 11.746 6.74294 11.746C6.58967 11.746 6.44117 11.7313 6.29639 11.7037C6.59834 12.6464 7.47462 13.3326 8.51338 13.3519C7.70099 13.9885 6.67781 14.3678 5.5656 14.3678C5.37445 14.3678 5.18507 14.3566 4.99976 14.3345C6.04949 15.0081 7.29728 15.4009 8.63745 15.4009C13.0028 15.4009 15.39 11.7846 15.39 8.64814C15.39 8.54531 15.3877 8.44283 15.3831 8.34124C15.8472 8.00673 16.2495 7.58885 16.5675 7.11292Z" fill="#131D1D"/>
</svg>
